<svg xmlns="http://www.w3.org/2000/svg" width="192" height="192"><g fill="none" fill-rule="evenodd"><rect width="192" height="192" fill="#292524" rx="20"/><g fill="#F59E0C" fill-rule="nonzero"><path d="m153.479 90.043-7.781-20.74-20.74-7.782 20.74-7.78L153.478 33l7.782 20.74L182 61.521l-20.74 7.781zM93.317 61.521l-3.82-10.44-10.441-3.82 10.441-3.82L93.317 33l3.82 10.441 10.44 3.82-10.44 3.82zM114.262 115.444l-3.961-10.3-10.3-3.96 10.3-3.961 3.96-10.3 3.962 10.3 10.3 3.96-10.3 3.962z"/></g><path fill="#D6D3D1" fill-rule="nonzero" d="M9.299 159 48.94 96.042 9.299 33h26.697L74.91 96.042 35.996 159z"/><path fill="#D6D3D1" d="M86.225 159v-20.042h88.605V159z"/></g></svg>