<svg xmlns="http://www.w3.org/2000/svg" width="612" height="792"><g fill="none" fill-rule="evenodd"><g fill-rule="nonzero"><g fill="#F59E0B"><path d="M211.45 266.578q-2.322 0-5.006-2.032t-3.12-4.352a7.5 7.5 0 0 1-.072-1.814 24 24 0 0 0 .072-1.814v-1.015q.145-.435.363-1.016.218-.58.653-.725v-.145q-.29-.29-.29-.871 0-.87.435-1.596t.435-1.45q1.016-1.306 1.886-2.758.87-1.45.87-3.192l1.016-.87h-.87q-2.177 0-5.15-1.088-2.976-1.089-2.975-3.845 0-1.16 1.306-2.104a11.5 11.5 0 0 1 2.974-1.523q1.668-.58 2.684-.58 1.016-.582 2.467-.581v.145h-.145v.29q-.87.29-2.612 1.306-1.74 1.015-3.12 2.321-1.377 1.306-1.378 2.467h4.208q.145 0 .58-.073.436-.072.58-.217 1.161-.29 2.25-.58 1.088-.291 2.103-.581.87-.29 2.104-2.031a35 35 0 0 1 2.684-3.337q1.452-1.596 2.902-1.451v.145q0 .145-.29.145-.29.435-1.306 1.596a40 40 0 0 0-1.886 2.321q-.87 1.16-.87 1.741l-.146.145 20.458-5.658q.29-.146 1.306-.435 1.016-.291 1.16 0l.146-.29q2.321-.29 4.207-.871a36.6 36.6 0 0 1 5.006-1.378 27 27 0 0 0 5.006-1.524q1.16-.435 2.394-2.539 1.233-2.103 2.103-2.974a29.3 29.3 0 0 0 3.265-3.845 199 199 0 0 0 2.83-4.135q2.61-3.483 6.093-7.472 3.481-3.99 5.368-7.763.146-.29.218-.58.072-.291.218-.435l2.03-2.467q.436.435.436.87 0 .58-.508 1.089a6.4 6.4 0 0 0-.798.943q-.435.725-.798 1.523-.361.798-.798 1.524a133 133 0 0 1-2.103 3.482 57 57 0 0 1-2.25 3.337q-1.45 2.175-2.974 4.498a63 63 0 0 1-3.12 4.353q-.29.435-.797.87a4.4 4.4 0 0 0-.798.87q-.291.291-1.596 2.177-1.305 1.885-2.467 3.7-1.16 1.813-1.306 2.104l5.659-.726.145-.145 5.368-.725q.581-2.612 2.104-6.384a200 200 0 0 1 3.265-7.618 492 492 0 0 1 2.902-6.311l2.321-4.788v-.87q0-.435.145-.871.29-1.305 1.524-3.12a27 27 0 0 1 2.829-3.482q1.596-1.668 2.466-2.394.87.29 2.322.58 1.451.291 1.596 1.306l-.145.87q-1.452 1.017-3.265 3.918t-2.684 4.498a8 8 0 0 0-.508 1.306 8 8 0 0 1-.508 1.306q-.144.58-.943 2.104-.798 1.523-1.088 1.523a213 213 0 0 1-3.627 7.472 42 42 0 0 0-3.047 7.908q-.146.29-.435 1.16t-.145 1.161h.725q1.305 0 2.612-.145 1.306-.145 2.756-.145 5.949 0 10.302 2.321t4.353 6.965q0 1.886-1.742 3.627a20.2 20.2 0 0 1-3.917 3.047 90 90 0 0 0-3.482 2.176v-.29h-.145v-.29q1.161-.87 2.829-2.83a25 25 0 0 0 2.902-4.207q1.233-2.249 1.233-3.7 0-2.175-2.394-3.12-2.394-.942-5.296-1.232-2.901-.29-4.352-.29a43 43 0 0 0-3.192.144q-1.887.145-3.047.436-1.16.435-2.032 2.756-.87 2.322-1.523 5.224a94 94 0 0 0-1.016 5.078q-.362 2.176-.653 2.321.146.435.146 1.596 0 1.452-.073 2.975a66 66 0 0 0-.073 3.12q0 2.03.29 5.15t1.597 5.513q1.305 2.394 4.207 2.394.436-.29 1.886-1.088a38 38 0 0 0 2.757-1.668q1.305-.871 1.306-1.016h.58v1.016q0 1.741-2.394 2.756-2.394 1.016-3.845 1.016-4.207 0-6.456-2.612t-3.047-6.311-.798-7.037q0-5.368 1.088-10.52a966 966 0 0 0 2.104-10.228h-.29q-1.596.58-4.208.943t-5.078.798-3.627 1.451q-2.322 1.885-3.99 4.57a48 48 0 0 1-3.7 5.151 196 196 0 0 0-1.814 2.321 79 79 0 0 1-2.539 3.12q-1.305 1.524-2.031 2.104a4.8 4.8 0 0 1-.726.58q-.435.29-.725.58l-3.047 4.063-2.466 2.031a71 71 0 0 0-2.685 2.467q-1.668 1.596-3.12 1.596-.58 2.031-3.626 3.845a27.7 27.7 0 0 1-6.602 2.829q-3.555 1.016-5.44 1.016m-.146-1.451q.87 0 2.612-.798a40 40 0 0 0 3.482-1.814q1.74-1.015 2.466-1.45a70 70 0 0 0 8.633-7.328q3.99-3.99 7.908-8.052a109 109 0 0 1 3.264-3.41 51 51 0 0 0 3.12-3.41 9 9 0 0 0 1.306-1.668q.58-.943 1.16-1.524.87-1.16 2.394-2.321t2.104-2.322h-.145q-.145 0-2.902.798a210 210 0 0 0-6.747 2.104q-3.99 1.305-8.197 2.612-4.208 1.305-7.327 2.321-3.12 1.016-4.135 1.306a31 31 0 0 1-4.063.943q-2.175.363-3.772 1.524-1.45 1.015-2.757 4.497a51 51 0 0 0-2.104 7.182q-.798 3.7-.798 5.586 0 2.322 1.016 3.773 1.016 1.45 3.482 1.45M294.441 263.966q-.726 0-1.088-.29t-1.088-.58q-3.483-1.888-3.483-6.094 0-3.048 1.379-6.602a75 75 0 0 1 3.12-6.964q1.74-3.41 3.119-5.659 1.378-2.25 1.378-2.684 0 .144-.072.073l-.073-.073-1.16.145q-.001-.146-.146-.218l-.145-.072a6.3 6.3 0 0 1 .943-1.016 6.3 6.3 0 0 0 .943-1.015q1.016-1.161 2.104-3.192t2.83-2.032q.725 0 2.756.726 2.031.725 2.031 1.596 0 .435-1.45 2.176a190 190 0 0 1-2.975 3.482q-1.524 1.741-2.104 2.467-1.596 2.32-3.627 6.384a73 73 0 0 0-3.482 8.125q-1.45 4.062-1.451 6.964 0 .726.29 1.234t.29 1.233h.29q3.337-1.74 5.586-4.57t4.426-5.587a241 241 0 0 1 4.425-5.44q2.25-2.685 4.28-5.441.725-1.161 2.54-3.845 1.813-2.684 2.683-3.41.436-.29 1.234-.29h1.378q1.016 0 1.886.87t.87 1.887q0 .87-1.232 2.756-1.234 1.887-1.669 3.047-1.016 2.322-1.596 5.514t-.58 5.658q0 1.452.362 3.41.363 1.959 1.96 2.394v-.145h.58v-.145q2.32-.58 4.715-2.684a42.4 42.4 0 0 0 4.57-4.716q2.177-2.611 3.337-4.498.58-.725 1.089-1.45a2.72 2.72 0 0 0 .507-1.597q1.306-1.015 1.306-2.466 0-.435-.29-.435.145-.87.653-1.596a6.2 6.2 0 0 0 .798-1.596 25 25 0 0 0 1.45-4.063q.582-2.175.581-4.208 0-.87-.145-2.248-.145-1.38-1.306-1.379-.725 0-1.378.29t-1.378.29q-.726 0-.726-.87.725-.435 1.451-.798t1.45-.653q2.758.146 4.426 1.16 1.669 1.017 2.25 3.918l.29.87q.144.436.144.871 0 1.452-.943 3.192-.942 1.741-.798 4.353l-.58.29q-.145.436-.58 1.669t-.436 1.668q-1.015.435-1.813 1.814-.798 1.378-1.089 2.539-1.74 1.016-2.321 2.684-.58 1.669-1.741 2.684-1.887 1.741-2.902 3.628-1.885 1.305-4.57 3.337t-5.006 2.031q-.87 0-1.306-.145-3.772-1.16-5.296-3.337-1.523-2.176-1.523-6.094 0-2.466.435-4.933t1.016-4.788q-1.016.146-2.684 2.394a53 53 0 0 0-3.12 4.715 174 174 0 0 1-2.176 3.628 25.8 25.8 0 0 1-4.498 5.658q-1.45 1.451-1.959 2.467-.507 1.015-2.684 2.176-.87.436-1.668.943a3.3 3.3 0 0 1-1.814.508M354.073 262.95q-3.627 0-7.254-2.321t-3.627-6.384q0-.726.072-1.451t.073-1.306q0-.87-1.306-1.523t-1.306-1.524q.146-.144.435-.145.58 0 1.161.218.58.217 1.16.217.436 0 1.016-.29.29-.29 1.234-2.611.942-2.322 2.829-5.659 1.886-3.337 4.788-6.456 2.901-3.12 6.964-4.86.87-.291 1.814-.654.943-.363 1.813-.363 1.596 0 3.41 1.234t1.814 2.974q0 1.016-.436 1.814-.435.798-.87 1.668l-.726.435q-.435.726-1.523 1.96-1.088 1.232-1.088 1.813h-.073q-.072 0-.072.145l-.58.145q-.872.58-1.452 1.45-.58.872-1.305 1.307a266 266 0 0 1-5.441 3.627 50 50 0 0 1-5.731 3.192 5.2 5.2 0 0 1-1.306.435q-.725.145-1.16.726-.582.87-.799 2.031a12.6 12.6 0 0 0-.217 2.321q0 1.742.87 3.845t3.047 2.104q.29 0 .508-.072.217-.073.363-.073.87 0 1.668-.145t1.669-.29l.87-.435h.145q.726 0 2.83-1.089t4.135-2.321 2.466-1.669a1.44 1.44 0 0 0 .508-.435q.218-.29.363-.435a96 96 0 0 1 5.078-3.627 32.4 32.4 0 0 0 4.933-4.063v.145h.29q-.146.726-1.088 1.451t-1.378 1.45q-1.596 2.903-5.079 5.514t-6.384 4.498q-1.016.726-1.958 1.524a7.1 7.1 0 0 1-2.104 1.233q-2.176.725-4.063.725m-5.658-15.96q1.16 0 2.249-.943 1.087-.942 1.668-1.088l.145.145v-.145q2.757-1.306 5.296-3.627a146 146 0 0 0 4.716-4.498h.29q0-.87 1.306-1.959 1.305-1.088 1.305-1.813.29-.29.58-.943.29-.654.29-.943-.435-.29-1.305-.29-.726.29-1.886 1.015-1.161.725-2.031.725 0 .146-1.379 1.161a90 90 0 0 0-2.829 2.176q-1.45 1.161-1.886 1.596-.726.726-2.322 2.612a49 49 0 0 0-2.901 3.772q-1.306 1.887-1.306 2.902z"/><path d="M373.806 270.205q-.58-.29-1.234-1.378a50 50 0 0 1-1.233-2.177q-.58-1.088-1.16-.943 0-.58-.218-1.016a1.9 1.9 0 0 1-.218-.87q3.047-4.207 7.472-7.545t8.923-5.658h.436a9.8 9.8 0 0 1 2.394-1.741q1.379-.726 2.103-1.742v-.145a26.5 26.5 0 0 0-4.062-2.03 11.1 11.1 0 0 1-3.772-2.467q-1.451-1.161-2.685-2.902t-1.233-3.773q0-3.191 3.047-5.876t5.513-4.135q.726-.87 2.83-2.031a92 92 0 0 1 4.352-2.249q2.25-1.088 3.265-1.523v.145a6.3 6.3 0 0 1 2.321-1.016l1.742-.725h.29a99 99 0 0 0 2.466-.653q1.305-.363 2.467-.363 1.305 0 3.047 1.45 1.74 1.452 1.74 2.903 0 .58-.797 2.103a23 23 0 0 1-1.741 2.83q-.943 1.305-1.524 1.596-.144 0-.217.072-.073.073-.218.073v-.29q.726-.87 1.378-2.685.654-1.813.653-2.974 0-2.175-2.321-2.176-1.741 0-3.265.508-1.522.508-3.12 1.233-5.367 1.886-9.358 4.425-3.99 2.54-7.327 7.472-.58 1.016-1.233 2.104t-.653 2.249q0 1.45 1.088 2.394a10.9 10.9 0 0 0 2.25 1.523q.435.291 2.176 1.306 1.74 1.016 3.41 1.959 1.668.943 1.813.943.726 0 1.45-.58.726-.58 1.307-.87 2.031-1.162 5.658-2.975t5.804-2.25l2.031-.434q.146 0 .435.29a4 4 0 0 1-.435.362 4 4 0 0 1-.58.363q-.87.87-2.83 1.524-1.958.653-2.684 1.233-.435.29-.725.798a2.3 2.3 0 0 1-.726.798 510 510 0 0 0-3.337 2.249q-2.031 1.379-2.031 3.12 0 .58.218 1.16.217.58.217 1.306 0 1.161-.725 3.264-.726 2.104-1.741 2.83v.58q-1.306.435-1.959 1.814-.653 1.378-2.394 1.233l-.725.87q-1.017 0-1.742.798t-1.45 1.524h-.146q-1.015 0-2.103.943-1.089.944-2.612 1.741t-3.845.363a3.2 3.2 0 0 0-1.016.435q-.435.29-1.015.29-.435 0-.435-.29 0-.145.435-.58.58-.29 3.047-1.451 2.466-1.16 3.482-1.741 0-.145.653-.58.652-.435.798-.581 1.886-1.305 4.207-3.41a26.4 26.4 0 0 0 4.063-4.643q1.74-2.538 1.741-4.86 0-.435-.145-1.233-.146-.798-.725-.798-.58 0-1.089.58-.507.58-.798.87-1.015.726-2.176 1.451a33 33 0 0 0-2.321 1.596 16.8 16.8 0 0 0-2.612 2.25 25 25 0 0 1-2.612 2.393 43 43 0 0 0-3.482 2.975 69 69 0 0 0-3.192 3.264q-1.16 1.16-1.16 2.902 0 .58.29 1.233t.29 1.379zM414.576 265.562q-2.32 0-3.41-1.088-1.088-1.089-1.813-1.088-.145-.726-1.306-1.596-1.16-.87-1.16-4.063 0-2.901 1.305-5.078a35 35 0 0 0 2.322-4.643q.29-.726.29-1.523 0-.798.29-1.379a6.7 6.7 0 0 1 .87-1.886l1.161-1.741q3.338-5.658 7.835-9.213 4.499-3.555 10.592-6.022h.145q.725-.29 2.321-.507t2.322-.218q1.451 0 2.611.58t2.032.58l-.29.29q1.305.582 2.03 1.67a13 13 0 0 0 1.597 1.958l.58.58q.291.29.435.58.436.436.58 1.307.146.87.146 1.596 0 3.772-1.886 6.819a61 61 0 0 1-4.208 5.949q-1.016 1.45-1.959 2.901a17 17 0 0 1-2.249 2.757 100 100 0 0 1-1.523 1.451q-1.233 1.161-2.322 2.249t-1.233 1.378a6 6 0 0 0-1.886 1.306q-.871.87-1.886 1.596-2.612 1.887-5.804 3.192t-6.529 1.306m-.725-1.741 2.031-.58a109 109 0 0 1 2.612-.726q.724-.29 2.829-1.523a47 47 0 0 0 3.99-2.612q1.886-1.378 1.886-1.959 1.015-.29 2.83-2.249a63 63 0 0 0 3.554-4.207q1.741-2.25 2.321-3.12.29-.29 1.016-1.523t.87-1.233q.146-.58.508-1.234.363-.653.363-1.088.435-.29.87-1.959.436-1.668.726-1.668l-.145-.145a4 4 0 0 0 .218-.508.9.9 0 0 1 .217-.363q0-.87.29-1.668t.29-1.669q.29-.58.29-1.45v-1.452l.146-.145v-.145q0-1.305-.798-2.321t-2.394-1.016q-4.062 0-7.327 1.959a69 69 0 0 0-6.312 4.28q-1.016.726-2.03 1.523a13.3 13.3 0 0 0-1.887 1.814q-.29.145-.87.58t-.58.871q1.305-.146 2.538-1.088t3.555-.943q.726 0 2.83 1.305 2.103 1.306 2.103 2.032v.29q-.87-.29-1.233-.58t-1.524-.29q-2.901 0-5.876 2.248-2.974 2.25-4.86 4.28a17 17 0 0 0-1.669 1.596q-.798.87-1.378 1.887-.436 1.015-.436 2.321.29-.145.58.363.291.507.291.798h-.435q-.726 0-1.088-.363t-.653-.363q-.581.435-1.306 2.322-.725 1.886-1.016 1.886-.146.58-.217 1.233-.073.654-.073 1.234 0 2.321.87 3.844.87 1.524 3.483 1.524M492.925 269.915a6.3 6.3 0 0 1-1.378-.145 66 66 0 0 0-1.379-.29l-.435.29q-2.322-1.887-2.974-5.224t-.653-6.093q0-2.902.217-5.877.218-2.974.363-5.73.146-2.033.653-4.063.508-2.031.508-3.918 0-.87-.145-1.16l-.29-.29-.29.144q-1.162.58-2.104 2.83-.944 2.249-1.524 3.41-.435.87-1.958 3.409a93 93 0 0 1-3.12 4.86q-1.596 2.322-2.321 2.902-1.305 1.016-2.612 1.016a5.2 5.2 0 0 1-2.684-.725q-1.233-.726-1.233-2.467 0-.58.798-2.902a114 114 0 0 1 1.958-5.223 65 65 0 0 0 1.959-5.586q.798-2.685.798-4.135 0-.87-.435-.87-.58 0-2.394 1.523a73 73 0 0 0-3.555 3.192q-1.74 1.668-2.176 2.249l-1.016 1.74q-2.322 1.887-4.208 4.499a1.7 1.7 0 0 0-.29.435l-.29.58q-.29.435-1.378 1.814-1.089 1.379-2.177 2.611-1.088 1.234-1.668 1.524a7.5 7.5 0 0 1-1.088 1.814 23 23 0 0 1-1.524 1.668q-.87.87-2.104 3.482t-1.668 3.773q-.146.29-1.088.58-.944.29-1.379.29-.58 0-1.378-.58t-.798-1.16q0-.436 1.088-2.903t2.54-5.658a171 171 0 0 1 2.683-5.659q1.233-2.466 1.524-2.757-.146-.29.145-.58l.435-.435q0-.725.87-2.25.872-1.522 1.161-2.103 1.305-2.466 2.975-5.949a71 71 0 0 0 2.902-6.964q1.233-3.482 1.233-6.094-.87 0-1.741.29-.87.29-1.741.29-.58-.434-.58-.725 0-.87 2.03-.87.87.29 2.54.217a13 13 0 0 1 3.12.218q1.45.29 1.45 1.886 0 .726-1.233 3.337a220 220 0 0 1-2.975 6.021 856 856 0 0 0-3.264 6.457q-1.524 3.046-2.104 4.498a2.17 2.17 0 0 1-.725 1.233q-.58.508-.58 1.523-.436.145-.436.871 0 .145.072.435.073.29.073.58h.145q.29-.58 1.741-2.32 1.45-1.742 3.047-3.556 1.596-1.814 2.031-2.394h.29a104 104 0 0 1 4.426-4.715q2.25-2.25 5.005-3.99.581-.29.726-.725l.29.145q.29 0 .653-.145a2.1 2.1 0 0 1 .798-.145q1.596 0 3.047 1.305 1.45 1.306 1.45 3.047 0 2.176-1.378 4.425a57 57 0 0 0-2.394 4.28 21 21 0 0 0-1.015 2.395q-.435 1.233-1.016 2.394-.146.58-.798 1.886-.653 1.306-.653 1.886 0 .146.073.218.072.072.072.217a3.33 3.33 0 0 0 1.887-1.233q.725-.943 1.45-1.814l2.902-3.772 2.902-3.772 1.886-2.177a61 61 0 0 1 1.741-2.611q1.015-1.452 2.032-2.032 1.16-.435 2.176-.435 1.16 0 2.684.29t1.524 1.741q0 2.177-1.016 4.135a21.5 21.5 0 0 0-1.596 3.99q-.291 1.016-.87 3.7-.582 2.685-1.016 5.369t-.436 3.845q0 .87.29 1.16-.144.145-.144.726 0 .58.217 1.233.218.653.363 1.378 0 1.451.363 3.7.362 2.25 2.539 2.25v-.146l.145.145v-.145q.725-.29 1.813-1.378a19.6 19.6 0 0 0 2.032-2.394q.942-1.306.943-1.887h.145v.146q0 .145-.218 1.305-.217 1.161-.435 2.394-.217 1.234-.363 1.379-1.305 1.596-3.482 1.596M509.32 262.95q-3.627 0-7.254-2.321t-3.627-6.384q0-.726.072-1.451t.073-1.306q0-.87-1.306-1.523-1.305-.653-1.306-1.524.145-.144.435-.145.58 0 1.161.218.58.217 1.16.217.436 0 1.016-.29.29-.29 1.234-2.611.942-2.322 2.829-5.659 1.885-3.337 4.788-6.456 2.901-3.12 6.964-4.86.87-.291 1.814-.654.943-.363 1.814-.363 1.595 0 3.41 1.234 1.813 1.233 1.813 2.974 0 1.016-.435 1.814a53 53 0 0 0-.871 1.668l-.725.435q-.435.726-1.524 1.96-1.088 1.232-1.088 1.813h-.073q-.072 0-.072.145l-.58.145q-.871.58-1.451 1.45-.581.872-1.306 1.307a266 266 0 0 1-5.441 3.627 50 50 0 0 1-5.731 3.192 5.2 5.2 0 0 1-1.306.435q-.726.145-1.16.726-.582.87-.799 2.031a12.6 12.6 0 0 0-.217 2.321q0 1.742.87 3.845t3.047 2.104q.29 0 .508-.072.217-.073.363-.073.87 0 1.668-.145t1.669-.29l.87-.435h.145q.726 0 2.83-1.089t4.135-2.321 2.466-1.669a1.44 1.44 0 0 0 .508-.435q.217-.29.363-.435a96 96 0 0 1 5.078-3.627 32.4 32.4 0 0 0 4.933-4.063v.145h.29q-.146.726-1.088 1.451t-1.378 1.45q-1.596 2.903-5.079 5.514-3.481 2.611-6.384 4.498-1.016.726-1.958 1.524a7.1 7.1 0 0 1-2.104 1.233q-2.176.725-4.063.725m-5.658-15.96q1.16 0 2.249-.943 1.088-.942 1.668-1.088l.145.145v-.145q2.757-1.306 5.296-3.627a146 146 0 0 0 4.716-4.498h.29q0-.87 1.306-1.959 1.305-1.088 1.305-1.813.29-.29.58-.943.291-.654.291-.943-.435-.29-1.306-.29-.725.29-1.886 1.015-1.16.725-2.031.725 0 .146-1.379 1.161a90 90 0 0 0-2.829 2.176q-1.45 1.161-1.886 1.596-.726.726-2.322 2.612a49 49 0 0 0-2.901 3.772q-1.305 1.887-1.306 2.902z"/></g><g fill="#0C0A09"><path d="M335.618 309.43q-1.028.87-2.745 1.265a15.2 15.2 0 0 1-3.417.395q-2.133 0-3.97-.731-1.836-.73-3.218-2.43-1.383-1.698-2.172-4.462-.79-2.765-.79-6.794 0-4.186.888-6.951.89-2.764 2.33-4.404 1.442-1.64 3.299-2.31a11 11 0 0 1 3.752-.672q1.935 0 3.377.316 1.44.316 2.35.71l-.988 4.385a6.9 6.9 0 0 0-1.757-.612q-1.008-.217-2.39-.217-2.725 0-4.186 2.37-1.462 2.37-1.462 7.425 0 2.172.336 3.97.337 1.795 1.066 3.1.73 1.303 1.857 2.014 1.125.711 2.705.711 1.383 0 2.37-.375a9.3 9.3 0 0 0 1.777-.889zM336.052 300.662q0-5.252 2.054-7.82 2.054-2.567 5.727-2.567 3.95 0 5.885 2.607 1.935 2.606 1.936 7.78 0 5.293-2.054 7.84-2.055 2.548-5.767 2.548-7.78 0-7.78-10.388m4.858 0q0 2.963.672 4.582.671 1.62 2.251 1.62 1.5 0 2.232-1.403.73-1.401.73-4.799 0-3.04-.671-4.62-.672-1.58-2.29-1.58-1.383 0-2.153 1.402t-.77 4.798M363.463 310.537v-11.494q0-2.488-.395-3.456t-1.54-.968q-.948 0-1.56.613a4 4 0 0 0-.929 1.48v13.825h-4.7v-19.749h3.634l.593 2.37h.118a6.9 6.9 0 0 1 1.876-2.034q1.126-.81 2.982-.81 1.54 0 2.508.672.968.67 1.52 2.37.752-1.422 1.976-2.232t2.883-.81q1.303 0 2.232.336.928.336 1.5 1.165.573.83.85 2.271.276 1.442.276 3.654v12.797h-4.7V298.53q0-2.014-.356-2.963-.355-.948-1.58-.948-.986 0-1.599.573-.612.573-.889 1.56v13.785zM389.65 310.537v-11.494q0-2.488-.395-3.456-.396-.968-1.54-.968-.95 0-1.56.613a4 4 0 0 0-.929 1.48v13.825h-4.7v-19.749h3.634l.592 2.37h.118a6.9 6.9 0 0 1 1.877-2.034q1.125-.81 2.982-.81 1.54 0 2.508.672.968.67 1.52 2.37.75-1.422 1.975-2.232 1.224-.81 2.883-.81 1.304 0 2.232.336.93.336 1.5 1.165.574.83.85 2.271.277 1.442.277 3.654v12.797h-4.7V298.53q-.001-2.014-.356-2.963-.356-.948-1.58-.948-.987 0-1.6.573-.612.573-.888 1.56v13.785zM406.752 291.973q1.185-.711 2.962-1.145t4.029-.435q3.357 0 4.68 1.738t1.323 4.937q0 1.857-.098 3.654-.099 1.797-.139 3.515a39 39 0 0 0 .06 3.318 13 13 0 0 0 .533 3.021h-3.831l-.75-2.41h-.159a5.3 5.3 0 0 1-1.777 1.897q-1.146.75-2.884.75-2.33 0-3.673-1.56t-1.343-4.167q0-3.555 2.528-5.055 2.528-1.501 6.833-1.264.198-2.292-.296-3.318-.495-1.027-2.113-1.027-1.185 0-2.449.276a9 9 0 0 0-2.251.79zm5.648 14.811q1.066 0 1.738-.533.67-.533.987-1.165v-3.278a7.7 7.7 0 0 0-1.738-.04 4.8 4.8 0 0 0-1.461.356 2.36 2.36 0 0 0-1.007.81q-.375.533-.376 1.362 0 1.224.494 1.857.495.63 1.363.631M432.82 310.537V298.53q0-2.173-.514-3.042-.513-.869-1.738-.869-1.026 0-1.777.632a3.45 3.45 0 0 0-1.066 1.58v13.706h-4.7v-19.749h3.752l.553 2.291h.118q.712-1.146 1.936-1.955t3.199-.81q1.185 0 2.113.356a3.57 3.57 0 0 1 1.56 1.165q.631.81.948 2.172t.316 3.377v13.153zM454.938 303.585q0 1.659.04 3.318.039 1.659.315 3.673h-3.317l-.632-2.29h-.158q-1.343 2.764-4.7 2.764-3.003 0-4.72-2.37-1.719-2.37-1.718-7.702 0-5.213 1.856-7.919t5.53-2.705q.947 0 1.58.118.63.119 1.224.395v-7.978h4.7zm-7.346 3.16q1.066 0 1.698-.533.632-.534.948-1.56v-9.322a2.4 2.4 0 0 0-.889-.513q-.494-.158-1.283-.158-1.581 0-2.37 1.422t-.79 5.055q0 2.726.651 4.167.652 1.442 2.035 1.442M481.203 310.537h-14.692v-27.648h4.976v23.066h9.716zM483.573 290.788h4.7v19.749h-4.7zm-.513-5.569q0-1.185.75-1.955t2.133-.77 2.212.75.83 1.975-.83 1.936q-.83.71-2.212.71t-2.133-.73q-.75-.73-.75-1.916M501.86 310.537V298.53q0-2.173-.513-3.042t-1.738-.869q-1.027 0-1.777.632a3.45 3.45 0 0 0-1.067 1.58v13.706h-4.7v-19.749h3.752l.553 2.291h.119q.711-1.146 1.935-1.955t3.2-.81q1.185 0 2.112.356a3.57 3.57 0 0 1 1.56 1.165q.633.81.949 2.172t.315 3.377v13.153zM523.15 309.075q-.989.87-2.687 1.422a11.4 11.4 0 0 1-3.554.553q-2.055 0-3.535-.71a6.2 6.2 0 0 1-2.43-2.055q-.947-1.342-1.402-3.258t-.454-4.365q0-5.33 2.113-7.88 2.114-2.547 5.866-2.547 1.264 0 2.448.376 1.185.375 2.114 1.263.928.89 1.5 2.37.573 1.482.573 3.733 0 .869-.099 1.856a30 30 0 0 1-.296 2.133h-9.598q.08 2.448 1.027 3.752.948 1.303 3.042 1.303 1.263 0 2.31-.394 1.047-.396 1.6-.83zm-6.162-14.811q-1.5 0-2.252 1.205-.75 1.204-.869 3.377h5.451q.119-2.251-.474-3.417t-1.856-1.165"/></g><g fill="#44403C"><path d="M275.221 361.128q0 1.006-.56 2.186a15 15 0 0 1-1.423 2.37 27 27 0 0 1-1.886 2.321 41 41 0 0 1-1.973 2.041l-1.064.832v.077l1.2-.212h3.965l-.27 1.431h-7.332l.116-.56q.483-.484 1.247-1.21a62 62 0 0 0 3.357-3.453 23 23 0 0 0 1.576-1.944q.707-.977 1.122-1.886.417-.91.416-1.683 0-.368-.077-.678a1.4 1.4 0 0 0-.251-.532 1.13 1.13 0 0 0-.503-.348q-.33-.126-.852-.126a3.4 3.4 0 0 0-1.354.281 9 9 0 0 0-1.393.764l-.406-1.16q.929-.678 1.78-.958a5.9 5.9 0 0 1 1.857-.28q1.354 0 2.031.763.678.764.677 1.964M276.827 370.743h2.573l2.012-9.364.425-1.14-.947.908-2.322 1.529-.542-.987 4.779-3.289h.657l-2.63 12.343h2.514l-.29 1.431h-6.52zM299.829 371.613a4.2 4.2 0 0 1-1.393.62 7.4 7.4 0 0 1-1.703.173q-1.141 0-2.03-.416a4.3 4.3 0 0 1-1.51-1.16 5.3 5.3 0 0 1-.948-1.751 7 7 0 0 1-.329-2.205q0-2.187.639-3.782.637-1.596 1.683-2.641a6.7 6.7 0 0 1 2.35-1.548 7.3 7.3 0 0 1 2.641-.503q1.103 0 1.8.155.695.155 1.14.368l-.696 1.412q-.386-.213-1.016-.358t-1.44-.145q-1.084 0-2.08.474a5.2 5.2 0 0 0-1.751 1.364q-.755.89-1.2 2.166-.445 1.278-.445 2.863 0 .93.242 1.713t.697 1.354q.454.57 1.122.89.667.319 1.518.319.91 0 1.51-.203t1.083-.474zM301.299 369.156q0-1.528.397-2.795.396-1.267 1.093-2.176a5.1 5.1 0 0 1 1.615-1.413 4 4 0 0 1 1.963-.503q.813 0 1.384.262.57.26.928.715t.513 1.045q.155.59.155 1.228 0 1.451-.378 2.709-.377 1.257-1.044 2.186a5.2 5.2 0 0 1-1.558 1.46 3.7 3.7 0 0 1-1.934.532q-.87 0-1.46-.28a2.7 2.7 0 0 1-.968-.745 2.9 2.9 0 0 1-.542-1.045 4.3 4.3 0 0 1-.164-1.18m1.548-.348q0 1.142.425 1.75.426.61 1.354.61.639 0 1.21-.454.57-.455 1.005-1.229a7.5 7.5 0 0 0 .697-1.77 8.2 8.2 0 0 0 .261-2.08q0-.986-.358-1.557-.357-.57-1.364-.57-.638 0-1.218.435t-1.035 1.17a6.4 6.4 0 0 0-.716 1.693 7.6 7.6 0 0 0-.261 2.002M315.866 372.174l1.16-5.475q.155-.675.233-1.199.077-.522.077-.91 0-.521-.193-.802-.194-.28-.658-.28-.483 0-.948.251t-.87.629q-.407.377-.745.803a6 6 0 0 0-.532.773l-1.277 6.21h-1.45l2.05-9.672h1.025l-.116 1.663h.077q.31-.309.668-.648a5 5 0 0 1 1.74-1.064 3.3 3.3 0 0 1 1.133-.184q.87 0 1.17.542.3.541.3 1.509.29-.368.677-.735t.841-.658q.456-.29.958-.474.502-.183 1.006-.184.89 0 1.364.416t.474 1.538q0 .813-.29 2.148l-1.22 5.803h-1.45l1.219-5.823q.115-.562.184-1.006.067-.444.067-.774 0-.522-.213-.793-.212-.27-.715-.27-.406 0-.861.26-.455.262-.88.649a6 6 0 0 0-.765.832 5.4 5.4 0 0 0-.532.831l-1.257 6.094zM330.627 372.174l1.16-5.475q.155-.675.233-1.199.077-.522.077-.91 0-.521-.194-.802-.193-.28-.657-.28-.485 0-.948.251-.465.251-.87.629-.407.377-.746.803a6 6 0 0 0-.532.773l-1.276 6.21h-1.451l2.05-9.672h1.026l-.116 1.663h.077q.31-.309.667-.648a5 5 0 0 1 1.741-1.064 3.3 3.3 0 0 1 1.132-.184q.87 0 1.17.542.3.541.3 1.509.291-.368.678-.735.386-.367.841-.658.454-.29.958-.474.502-.183 1.006-.184.89 0 1.363.416.474.416.474 1.538 0 .813-.29 2.148l-1.219 5.803h-1.45l1.218-5.823q.117-.562.184-1.006.068-.444.068-.774 0-.522-.213-.793-.212-.27-.716-.27-.406 0-.86.26-.456.262-.88.649a6 6 0 0 0-.765.832 5.4 5.4 0 0 0-.532.831l-1.257 6.094zM347.496 368.363q-.154.716-.213 1.451t-.058 1.374v.551q0 .261.039.474h-1.084l-.27-1.683h-.078a5.2 5.2 0 0 1-1.315 1.277q-.406.27-.87.435-.466.164-.987.164-2.303 0-2.303-2.998 0-1.239.32-2.515a7.5 7.5 0 0 1 .986-2.302 5.5 5.5 0 0 1 1.722-1.683q1.054-.658 2.544-.658.542 0 1.325.126.784.126 1.46.338zm-4.392 2.805q.465 0 .89-.222.426-.223.803-.552.377-.328.668-.706a5 5 0 0 0 .464-.706l1.083-5.223q-.58-.27-1.47-.27t-1.567.521a4.3 4.3 0 0 0-1.141 1.364 7 7 0 0 0-.697 1.906 10 10 0 0 0-.232 2.128q0 .735.29 1.248.29.512.91.512M355.311 372.174l1.297-6.113q.076-.348.135-.687.058-.337.058-.61 0-.56-.261-.908t-.977-.349q-.502 0-.987.233a4.3 4.3 0 0 0-.909.59 5.2 5.2 0 0 0-.764.793q-.339.435-.57.86l-1.278 6.191h-1.45l2.05-9.672h1.006l-.077 1.663h.077a8 8 0 0 1 .6-.648 4.6 4.6 0 0 1 1.76-1.064q.541-.183 1.2-.184.967 0 1.528.465.561.464.561 1.625 0 .58-.174 1.393l-1.374 6.422zM367.112 368.847q-.154.755-.232 1.412-.077.658-.077 1.219a7 7 0 0 0 .038.735h-.967l-.27-1.683h-.078q-.232.33-.58.667-.349.34-.774.61t-.9.435a3 3 0 0 1-.977.164q-1.064 0-1.693-.783-.628-.783-.628-2.486 0-1.14.329-2.35.328-1.21.967-2.196.637-.987 1.596-1.625.957-.639 2.215-.639.348 0 .6.02.25.02.474.058.222.039.415.106.195.068.407.145l.85-4.024h1.452zm-4.275 2.321q.405 0 .832-.222.425-.223.802-.552a5.4 5.4 0 0 0 1.152-1.412l1.083-5.03a2.2 2.2 0 0 0-.745-.3 5.5 5.5 0 0 0-1.093-.086q-.774 0-1.393.473-.62.474-1.054 1.268a7 7 0 0 0-.668 1.818 9.5 9.5 0 0 0-.232 2.109q0 .793.31 1.364.309.57 1.006.57M373.864 369.447q0-.504-.252-.852a2.8 2.8 0 0 0-.638-.628 12 12 0 0 0-.832-.552 6 6 0 0 1-.832-.61 2.9 2.9 0 0 1-.638-.792q-.252-.454-.252-1.132 0-.542.261-1.016t.716-.831a3.5 3.5 0 0 1 1.083-.561q.63-.204 1.364-.204 1.026 0 1.587.136t1.006.387l-.484 1.16q-.774-.444-2.109-.445-.812 0-1.344.339-.532.338-.532 1.035 0 .405.251.706t.639.57q.387.271.832.552.444.28.831.639.387.358.639.841.25.484.251 1.141 0 1.509-1.015 2.293-1.016.783-2.718.783-.87 0-1.596-.174t-1.17-.445l.54-1.218q.388.251 1.017.425t1.305.174q.949 0 1.519-.416.57-.415.57-1.305M383.091 362.502h1.432l.406-1.916 1.548-.445-.503 2.36h2.534l-.29 1.239h-2.515l-1.219 5.842-.067.426a2.4 2.4 0 0 0-.03.348q0 .464.213.638t.639.174q.465 0 .851-.116.387-.115.774-.348v1.18q-.407.232-1.045.377a5.5 5.5 0 0 1-1.219.145q-1.76 0-1.76-1.605 0-.33.097-.813l1.315-6.248h-1.45zM388.74 369.156q0-1.528.397-2.795t1.093-2.176a5.1 5.1 0 0 1 1.615-1.413 4 4 0 0 1 1.964-.503q.812 0 1.383.262.57.26.929.715.358.455.512 1.045t.155 1.228q0 1.451-.377 2.709-.378 1.257-1.045 2.186a5.2 5.2 0 0 1-1.557 1.46 3.7 3.7 0 0 1-1.935.532q-.87 0-1.46-.28a2.7 2.7 0 0 1-.968-.745 2.9 2.9 0 0 1-.541-1.045 4.3 4.3 0 0 1-.165-1.18m1.548-.348q0 1.142.426 1.75.425.61 1.354.61.637 0 1.209-.454.57-.455 1.006-1.229a7.5 7.5 0 0 0 .696-1.77 8.2 8.2 0 0 0 .261-2.08q0-.986-.358-1.557-.358-.57-1.363-.57-.639 0-1.22.435-.58.435-1.034 1.17a6.4 6.4 0 0 0-.716 1.693 7.6 7.6 0 0 0-.261 2.002M409.827 365.423h3.559l-1.257 5.958q-1.373 1.025-3.405 1.025a4.8 4.8 0 0 1-1.828-.348 4.3 4.3 0 0 1-1.519-1.035q-.657-.686-1.044-1.712t-.387-2.399q0-2.379.696-4.004.697-1.625 1.79-2.622a6.8 6.8 0 0 1 2.408-1.44 8 8 0 0 1 2.554-.446q1.102 0 1.828.145t1.17.358l-.677 1.412q-.387-.212-1.035-.348a7 7 0 0 0-1.46-.135 5.4 5.4 0 0 0-2.138.435 5.1 5.1 0 0 0-1.8 1.306q-.782.87-1.247 2.157t-.464 2.989q0 .87.213 1.644t.648 1.354 1.083.92q.648.338 1.538.338.619 0 1.064-.126a4.7 4.7 0 0 0 .89-.358l.793-3.772-2.167-.387zM421.376 371.226q-.676.58-1.596.88-.919.3-1.847.3-1.548 0-2.332-.89t-.783-2.476.445-2.843 1.17-2.128a5.2 5.2 0 0 1 1.645-1.335 4.14 4.14 0 0 1 1.886-.465q.696 0 1.209.194t.841.512.484.736.155.88q0 1.374-1.335 2.157t-3.888.783a13 13 0 0 1-1.006-.038q-.077.367-.116.696-.04.33-.04.58 0 1.065.484 1.732t1.51.667q.85 0 1.557-.28.705-.28 1.093-.59zm-1.644-7.719a2.63 2.63 0 0 0-1.848.726q-.783.726-1.19 2.176.735 0 1.529-.038a7.3 7.3 0 0 0 1.441-.204q.648-.164 1.074-.522.425-.357.425-.996a1.3 1.3 0 0 0-.067-.397 1 1 0 0 0-.223-.367q-.154-.165-.435-.271a2 2 0 0 0-.706-.107M424.181 362.502h1.432l.406-1.916 1.548-.445-.503 2.36h2.534l-.29 1.239h-2.515l-1.219 5.842q-.039.233-.068.426a2.4 2.4 0 0 0-.029.348q0 .464.213.638t.638.174q.465 0 .852-.116.387-.115.773-.348v1.18q-.406.232-1.044.377a5.5 5.5 0 0 1-1.219.145q-1.76 0-1.76-1.605 0-.33.096-.813l1.316-6.248h-1.451zM438.11 366.796l-2.573-8.164h1.683l1.722 5.92.058 1.18h.02l.58-1.219 4.197-5.88h1.741l-5.88 8.144-1.142 5.397h-1.548zM443.256 369.156q0-1.528.396-2.795.397-1.267 1.093-2.176a5.1 5.1 0 0 1 1.616-1.413 4 4 0 0 1 1.963-.503q.813 0 1.383.262.57.26.929.715.358.455.513 1.045.154.59.154 1.228 0 1.451-.377 2.709-.377 1.257-1.044 2.186a5.2 5.2 0 0 1-1.558 1.46 3.7 3.7 0 0 1-1.934.532q-.871 0-1.46-.28a2.7 2.7 0 0 1-.968-.745 2.9 2.9 0 0 1-.542-1.045 4.3 4.3 0 0 1-.164-1.18m1.547-.348q0 1.142.426 1.75.426.61 1.354.61.639 0 1.21-.454.57-.455 1.005-1.229a7.5 7.5 0 0 0 .697-1.77 8.2 8.2 0 0 0 .26-2.08q0-.986-.357-1.557-.358-.57-1.364-.57-.639 0-1.219.435t-1.035 1.17a6.4 6.4 0 0 0-.715 1.693 7.6 7.6 0 0 0-.262 2.002M456.043 362.502l-1.354 6.442a4.5 4.5 0 0 0-.116.967q0 .54.213.9.212.357.773.357.465 0 .939-.232a4.4 4.4 0 0 0 .909-.6q.435-.367.793-.812t.59-.87l1.296-6.152h1.451l-1.219 5.745q-.077.33-.154.803-.078.474-.145.996-.068.522-.107 1.016t-.039.86v.252h-1.14v-1.838h-.078a6.5 6.5 0 0 1-.668.755 5.2 5.2 0 0 1-.832.658 4.7 4.7 0 0 1-.977.474 3.3 3.3 0 0 1-1.102.183q-.426 0-.784-.096a1.5 1.5 0 0 1-.628-.339 1.6 1.6 0 0 1-.426-.638q-.155-.397-.155-1.016 0-.676.194-1.528l1.315-6.287zM474.48 368.692q0-.697-.359-1.18a4.2 4.2 0 0 0-.9-.88q-.54-.398-1.17-.764a7.2 7.2 0 0 1-1.17-.852 4.2 4.2 0 0 1-.9-1.14q-.357-.66-.357-1.626 0-1.025.377-1.76t1.025-1.2 1.528-.677a8 8 0 0 1 1.867-.213q1.122 0 2.012.174.89.175 1.393.445l-.774 1.374q-.387-.213-1.15-.406-.765-.195-1.771-.194-1.276 0-2.08.58-.802.58-.802 1.684 0 .715.357 1.209.358.493.9.89.541.396 1.17.764.63.367 1.17.841.543.474.9 1.132.358.657.358 1.606 0 1.876-1.354 2.892-1.355 1.015-3.888 1.015-1.296 0-2.196-.222t-1.364-.493l.793-1.413q.445.251 1.21.494.764.241 1.808.242.6 0 1.2-.107.6-.106 1.083-.377t.783-.716.3-1.122M478.116 362.502h1.432l.406-1.916 1.548-.445-.503 2.36h2.534l-.29 1.239h-2.515l-1.219 5.842q-.038.233-.068.426a2.4 2.4 0 0 0-.029.348q0 .464.213.638t.639.174q.465 0 .85-.116.388-.115.775-.348v1.18q-.407.232-1.045.377a5.5 5.5 0 0 1-1.219.145q-1.76 0-1.76-1.605 0-.33.096-.813l1.316-6.248h-1.451zM490.807 368.363q-.154.716-.213 1.451t-.058 1.374v.551q0 .261.039.474h-1.084l-.27-1.683h-.078a5.2 5.2 0 0 1-1.315 1.277q-.407.27-.87.435-.466.164-.988.164-2.301 0-2.302-2.998 0-1.239.32-2.515a7.5 7.5 0 0 1 .986-2.302 5.5 5.5 0 0 1 1.722-1.683q1.054-.658 2.544-.658.541 0 1.325.126t1.46.338zm-4.392 2.805q.465 0 .89-.222.426-.223.803-.552.377-.328.668-.706a5 5 0 0 0 .464-.706l1.083-5.223q-.58-.27-1.47-.27t-1.567.521a4.3 4.3 0 0 0-1.141 1.364 7 7 0 0 0-.697 1.906 10 10 0 0 0-.232 2.128q0 .735.29 1.248.29.512.91.512M499.222 363.778a3.2 3.2 0 0 0-.696-.077q-.987 0-1.703.619a4.4 4.4 0 0 0-1.122 1.509l-1.335 6.345h-1.45l2.05-9.672h1.006v1.663h.077q.233-.367.503-.687.27-.319.6-.57.33-.252.716-.397.387-.145.851-.145.425 0 .89.136zM499.918 362.502h1.432l.406-1.916 1.548-.445-.503 2.36h2.534l-.29 1.239h-2.515l-1.219 5.842-.067.426a2.4 2.4 0 0 0-.03.348q0 .464.213.638t.639.174q.465 0 .851-.116.387-.115.774-.348v1.18q-.407.232-1.045.377a5.5 5.5 0 0 1-1.219.145q-1.76 0-1.76-1.605 0-.33.097-.813l1.315-6.248h-1.45zM512.125 371.226q-.676.58-1.596.88-.918.3-1.847.3-1.548 0-2.331-.89-.784-.89-.784-2.476t.445-2.843q.446-1.258 1.17-2.128a5.2 5.2 0 0 1 1.645-1.335 4.14 4.14 0 0 1 1.886-.465q.697 0 1.21.194.512.194.84.512.33.32.484.736.156.415.155.88 0 1.374-1.335 2.157t-3.888.783a13 13 0 0 1-1.006-.038q-.078.367-.116.696-.039.33-.039.58 0 1.065.484 1.732.483.667 1.509.667.85 0 1.557-.28.706-.28 1.093-.59zm-1.644-7.719a2.63 2.63 0 0 0-1.847.726q-.785.726-1.19 2.176.736 0 1.528-.038a7.3 7.3 0 0 0 1.441-.204q.648-.164 1.074-.522.426-.357.426-.996a1.3 1.3 0 0 0-.068-.397 1 1 0 0 0-.223-.367q-.154-.165-.435-.271a2 2 0 0 0-.706-.107M521.663 368.847q-.154.755-.232 1.412-.078.658-.078 1.219a7 7 0 0 0 .039.735h-.967l-.271-1.683h-.078q-.231.33-.58.667-.348.34-.774.61-.424.27-.9.435a3 3 0 0 1-.976.164q-1.065 0-1.693-.783-.63-.783-.629-2.486 0-1.14.33-2.35.327-1.21.966-2.196t1.596-1.625q.958-.639 2.215-.639.35 0 .6.02.252.02.474.058t.416.106.406.145l.852-4.024h1.45zm-4.276 2.321q.407 0 .832-.222.426-.223.803-.552a5.4 5.4 0 0 0 1.151-1.412l1.083-5.03a2.2 2.2 0 0 0-.744-.3 5.5 5.5 0 0 0-1.093-.086q-.774 0-1.393.473-.619.474-1.055 1.268a7 7 0 0 0-.667 1.818 9.5 9.5 0 0 0-.232 2.109q0 .793.31 1.364.309.57 1.005.57"/></g><g fill="#44403C"><path d="m250.556 395.602-.174 2.244h.02l.754-2.283 4.546-8.996h.832l.715 9.035-.174 2.244h.02l.774-2.283 4.12-8.996h1.586l-6.5 13.755h-.85l-.736-9.073.116-2.05h-.077l-.774 2.07-4.527 9.053h-.851l-.755-13.755h1.587zM264.755 390.436h1.451l-2.05 9.673h-1.451zm.31-2.96q0-.445.3-.754.3-.31.745-.31t.754.31.31.754a1 1 0 0 1-.31.745q-.31.3-.754.3-.445 0-.745-.3t-.3-.745M268.044 390.436h1.432l.406-1.915 1.548-.445-.503 2.36h2.534l-.29 1.238h-2.515l-1.219 5.843q-.038.232-.068.425a2.4 2.4 0 0 0-.029.349q0 .464.213.638t.639.174q.465 0 .85-.116.388-.115.775-.348v1.18q-.407.232-1.045.377a5.5 5.5 0 0 1-1.219.145q-1.76 0-1.76-1.605 0-.33.096-.813l1.316-6.249h-1.451zM279.323 400.109l1.16-5.513q.116-.58.194-1.035.077-.455.077-.803 0-.716-.29-1.016t-.91-.3q-.502 0-1.025.261a5.47 5.47 0 0 0-1.867 1.577 4.6 4.6 0 0 0-.57.967l-1.219 5.862h-1.45l2.862-13.542h1.451l-1.2 5.533h.078q.252-.31.61-.638.357-.33.822-.61t1.006-.464a3.7 3.7 0 0 1 1.18-.184q.947 0 1.49.455.54.454.541 1.654 0 .813-.251 1.954l-1.238 5.842zM292.207 394.731l-2.573-8.164h1.683l1.722 5.92.058 1.18h.019l.58-1.219 4.198-5.88h1.741l-5.88 8.144-1.142 5.397h-1.548zM297.353 397.091q0-1.528.396-2.795.397-1.267 1.093-2.177a5.1 5.1 0 0 1 1.615-1.412 4 4 0 0 1 1.964-.503q.813 0 1.383.261t.929.716.512 1.045q.156.59.155 1.228 0 1.45-.377 2.709-.377 1.257-1.045 2.186a5.2 5.2 0 0 1-1.557 1.46 3.7 3.7 0 0 1-1.935.532q-.87 0-1.46-.28a2.7 2.7 0 0 1-.967-.745 2.9 2.9 0 0 1-.542-1.045 4.3 4.3 0 0 1-.164-1.18m1.547-.348q0 1.14.426 1.75.425.61 1.354.61.639 0 1.209-.455.57-.454 1.006-1.228a7.5 7.5 0 0 0 .696-1.77 8.2 8.2 0 0 0 .262-2.08q0-.986-.358-1.557-.359-.57-1.364-.57-.639 0-1.219.435t-1.035 1.17a6.4 6.4 0 0 0-.716 1.693 7.6 7.6 0 0 0-.26 2.002M310.14 390.436l-1.354 6.442a4.5 4.5 0 0 0-.116.968q0 .54.212.9.213.357.774.357.465 0 .938-.232a4.4 4.4 0 0 0 .91-.6q.435-.368.793-.812.357-.446.59-.87l1.296-6.153h1.451l-1.219 5.746q-.077.33-.155.803-.077.474-.145.996t-.106 1.016-.039.86v.252h-1.141v-1.838h-.078a6.5 6.5 0 0 1-.667.755 5.2 5.2 0 0 1-.832.657 4.7 4.7 0 0 1-.977.474 3.3 3.3 0 0 1-1.102.184q-.426 0-.784-.097a1.5 1.5 0 0 1-.629-.338 1.6 1.6 0 0 1-.425-.638q-.155-.397-.155-1.016 0-.677.193-1.528l1.316-6.288zM322.908 391.713a3.2 3.2 0 0 0-.697-.077q-.986 0-1.702.619a4.4 4.4 0 0 0-1.122 1.509l-1.335 6.345h-1.45l2.05-9.673h1.006v1.664h.077q.233-.367.503-.687t.6-.57q.33-.252.716-.397.387-.145.85-.145.427 0 .89.135zM336.682 399.548a4.2 4.2 0 0 1-1.393.62 7.4 7.4 0 0 1-1.702.173q-1.141 0-2.032-.416a4.3 4.3 0 0 1-1.509-1.16 5.3 5.3 0 0 1-.948-1.751 7 7 0 0 1-.328-2.206q0-2.186.638-3.782.639-1.596 1.683-2.64a6.7 6.7 0 0 1 2.35-1.548 7.3 7.3 0 0 1 2.641-.503q1.102 0 1.8.155.695.155 1.14.367l-.696 1.413q-.387-.214-1.015-.358-.63-.145-1.442-.145-1.083 0-2.08.474a5.2 5.2 0 0 0-1.75 1.363q-.755.89-1.2 2.167t-.444 2.863q0 .93.241 1.712.243.784.697 1.355.454.57 1.122.89.668.319 1.518.319.91 0 1.51-.203t1.083-.474zM338.152 397.091q0-1.528.397-2.795.396-1.267 1.093-2.177a5.1 5.1 0 0 1 1.615-1.412 4 4 0 0 1 1.964-.503q.811 0 1.383.261.57.261.928.716t.513 1.045.155 1.228q0 1.45-.377 2.709-.378 1.257-1.045 2.186a5.2 5.2 0 0 1-1.557 1.46 3.7 3.7 0 0 1-1.935.532q-.87 0-1.46-.28a2.7 2.7 0 0 1-.968-.745 2.9 2.9 0 0 1-.542-1.045 4.3 4.3 0 0 1-.164-1.18m1.548-.348q0 1.14.425 1.75.426.61 1.354.61.64 0 1.21-.455.57-.454 1.006-1.228a7.5 7.5 0 0 0 .696-1.77 8.2 8.2 0 0 0 .261-2.08q0-.986-.358-1.557-.357-.57-1.364-.57-.638 0-1.218.435t-1.035 1.17a6.4 6.4 0 0 0-.716 1.693 7.6 7.6 0 0 0-.261 2.002M352.72 400.109l1.16-5.475q.154-.676.232-1.2.078-.52.077-.908 0-.523-.193-.803t-.658-.28q-.483 0-.948.25-.465.252-.87.63-.407.377-.745.802a6 6 0 0 0-.532.774l-1.277 6.21h-1.45l2.05-9.673h1.025l-.116 1.664h.077q.31-.309.668-.648a5 5 0 0 1 1.741-1.064 3.3 3.3 0 0 1 1.132-.184q.87 0 1.17.542.3.541.3 1.509.29-.368.677-.735.386-.368.842-.658t.957-.474 1.006-.184q.89 0 1.364.416t.474 1.538q0 .813-.29 2.147l-1.219 5.804h-1.45l1.218-5.823q.115-.562.184-1.006.067-.445.067-.774 0-.522-.212-.793-.212-.27-.716-.27-.406 0-.861.26-.455.262-.88.649a6 6 0 0 0-.764.831 5.4 5.4 0 0 0-.532.832l-1.258 6.094zM364.365 390.436h1.006l-.097 1.664h.078a7 7 0 0 1 .61-.687q.337-.338.744-.61.405-.27.89-.434.483-.165 1.044-.165.465 0 .871.145t.716.484q.309.338.493.9.184.56.184 1.373 0 1.702-.464 3.047-.464 1.344-1.22 2.273-.753.929-1.692 1.422-.938.493-1.867.493-.677 0-1.19-.126-.512-.125-.686-.26l-.851 4.023h-1.451zm3.734 1.006q-.522 0-.997.271-.474.27-.87.668a6 6 0 0 0-.706.85 7 7 0 0 0-.503.842l-.948 4.585q.33.252.677.348.349.097.754.097a2.74 2.74 0 0 0 1.442-.416q.687-.416 1.228-1.19.542-.773.861-1.857.32-1.083.32-2.418 0-.773-.32-1.277t-.938-.503M375.527 390.436l-1.354 6.442a4.5 4.5 0 0 0-.116.968q0 .54.213.9.213.357.774.357.465 0 .938-.232a4.4 4.4 0 0 0 .91-.6q.435-.368.792-.812.359-.446.59-.87l1.297-6.153h1.45l-1.218 5.746q-.078.33-.155.803-.078.474-.145.996t-.107 1.016q-.038.494-.038.86v.252h-1.142v-1.838h-.077a6.5 6.5 0 0 1-.667.755 5.2 5.2 0 0 1-.832.657 4.7 4.7 0 0 1-.977.474 3.3 3.3 0 0 1-1.103.184q-.426 0-.783-.097a1.5 1.5 0 0 1-.63-.338 1.6 1.6 0 0 1-.425-.638q-.154-.397-.154-1.016 0-.677.193-1.528l1.316-6.288zM382.666 390.436h1.431l.407-1.915 1.547-.445-.503 2.36h2.535l-.29 1.238h-2.515l-1.22 5.843q-.038.232-.067.425a2.4 2.4 0 0 0-.029.349q0 .464.213.638.212.174.638.174.465 0 .851-.116.387-.115.774-.348v1.18q-.406.232-1.044.377a5.5 5.5 0 0 1-1.22.145q-1.76 0-1.76-1.605 0-.33.097-.813l1.316-6.249h-1.451zM394.873 399.161q-.678.58-1.596.88-.92.3-1.848.3-1.547 0-2.33-.89t-.784-2.476.445-2.844 1.17-2.128a5.2 5.2 0 0 1 1.644-1.335 4.14 4.14 0 0 1 1.887-.464q.696 0 1.209.194.512.194.841.512.329.32.484.735.155.417.155.88 0 1.374-1.335 2.158t-3.889.783a13 13 0 0 1-1.006-.039q-.077.368-.116.697-.038.33-.038.58 0 1.065.483 1.732.484.667 1.51.667.85 0 1.557-.28.705-.28 1.093-.59zm-1.645-7.719a2.63 2.63 0 0 0-1.847.726q-.783.725-1.19 2.176.735 0 1.529-.039a7.3 7.3 0 0 0 1.44-.203q.649-.164 1.074-.522t.426-.996a1.3 1.3 0 0 0-.068-.397 1 1 0 0 0-.222-.367q-.154-.165-.435-.271a2 2 0 0 0-.707-.107M403.307 391.713a3.2 3.2 0 0 0-.696-.077q-.987 0-1.702.619a4.4 4.4 0 0 0-1.122 1.509l-1.335 6.345H397l2.05-9.673h1.006v1.664h.078q.232-.367.503-.687.27-.32.6-.57.328-.252.715-.397t.851-.145q.425 0 .89.135zM405.145 387.38q0-.233.107-.416a1 1 0 0 1 .26-.3q.156-.116.34-.184.183-.068.357-.068.58 0 .784.29.203.29.203.833 0 .657-.252 1.16a3.4 3.4 0 0 1-.6.861q-.347.358-.715.58a3.2 3.2 0 0 1-.6.3l-.31-.657q.446-.233.774-.6.33-.368.426-.89-.774-.039-.774-.91M411.258 397.381q0-.503-.251-.85a2.8 2.8 0 0 0-.638-.63 12 12 0 0 0-.832-.55 6 6 0 0 1-.832-.61 2.9 2.9 0 0 1-.639-.793q-.25-.455-.251-1.132 0-.542.261-1.016t.716-.832a3.5 3.5 0 0 1 1.083-.56q.63-.204 1.364-.204 1.026 0 1.586.136.562.135 1.006.387l-.483 1.16q-.774-.444-2.109-.445-.813 0-1.344.339-.532.338-.532 1.035 0 .405.251.706t.638.57q.387.271.832.552.445.28.832.638.386.359.639.842.25.483.251 1.141 0 1.509-1.016 2.293-1.016.783-2.718.783-.87 0-1.596-.174-.725-.174-1.17-.445l.542-1.219q.387.252 1.015.426.63.174 1.306.174.948 0 1.519-.416.57-.415.57-1.306M431.707 391.017l.6-2.032h-.078l-1.083 1.858-4.643 6.113h-.465l-2.224-6.113-.29-1.858h-.078l-.155 2.012-1.934 9.112h-1.47l2.882-13.542h1.064l2.515 6.926.29 1.509h.02l.89-1.548 5.28-6.887h1.374l-2.882 13.542h-1.548zM441.708 396.298q-.154.715-.213 1.45-.057.736-.058 1.374v.552q0 .261.039.474h-1.083l-.271-1.683h-.078a5.2 5.2 0 0 1-1.315 1.276q-.406.271-.87.436-.465.164-.987.164-2.302 0-2.302-2.998 0-1.239.319-2.515a7.5 7.5 0 0 1 .986-2.302 5.5 5.5 0 0 1 1.722-1.683q1.054-.658 2.544-.658.542 0 1.325.126.785.125 1.46.338zm-4.391 2.805q.465 0 .89-.222.424-.223.802-.552.377-.328.668-.706a5 5 0 0 0 .464-.706l1.083-5.223q-.58-.27-1.47-.271-.89 0-1.567.522a4.3 4.3 0 0 0-1.141 1.364 7 7 0 0 0-.697 1.906 10 10 0 0 0-.232 2.128q0 .735.29 1.247t.91.513M450.568 400.554q-.405 1.896-1.402 2.776t-2.64.88q-1.26 0-2.07-.319a12 12 0 0 1-1.239-.551l.638-1.084q.156.078.378.204.222.125.541.241.32.117.774.194t1.074.077q.967 0 1.625-.696.657-.697.986-2.186l.349-1.625h-.078q-.27.368-.59.696a4.5 4.5 0 0 1-.706.59 3.5 3.5 0 0 1-.841.416 3.1 3.1 0 0 1-.997.155q-1.044 0-1.683-.755-.638-.754-.638-2.147 0-1.296.358-2.573a7.6 7.6 0 0 1 1.064-2.292 5.8 5.8 0 0 1 1.74-1.654q1.035-.639 2.39-.639 1.044 0 1.76.174.717.174 1.258.426zm-3.656-1.47q.483 0 .958-.252.474-.25.87-.648a6 6 0 0 0 .716-.86q.32-.465.532-.871l.987-4.662a2.1 2.1 0 0 0-.755-.233 7 7 0 0 0-.91-.058q-.792 0-1.47.465-.675.465-1.17 1.247a7 7 0 0 0-.783 1.81q-.29 1.025-.29 2.147 0 .89.357 1.402.358.513.958.513M455.985 390.436h1.45l-2.05 9.673h-1.45zm.31-2.96q0-.445.3-.754.3-.31.744-.31.445 0 .755.31t.31.754a1 1 0 0 1-.31.745q-.31.3-.755.3t-.745-.3-.3-.745M464.961 399.277a3.3 3.3 0 0 1-.667.445q-.378.194-.774.329t-.783.213a3.8 3.8 0 0 1-.736.077q-.946 0-1.557-.3a2.6 2.6 0 0 1-.957-.764 2.8 2.8 0 0 1-.484-1.006 4.2 4.2 0 0 1-.135-1.025q0-1.645.444-2.95.446-1.306 1.19-2.215a5.2 5.2 0 0 1 1.712-1.393 4.4 4.4 0 0 1 1.993-.484q.735 0 1.209.136.474.135.86.31l-.54 1.199a2.8 2.8 0 0 0-.813-.3 5 5 0 0 0-1.045-.107q-.658 0-1.286.445-.63.446-1.113 1.17a6.4 6.4 0 0 0-.774 1.664 6.5 6.5 0 0 0-.29 1.925q0 1.259.522 1.857.523.6 1.413.6.58 0 1.218-.261a5.3 5.3 0 0 0 1.026-.532zM474.228 386.703a10 10 0 0 1 1.547-.232 23 23 0 0 1 1.606-.059q.89 0 1.654.194.764.193 1.325.619.562.426.88 1.093.32.667.32 1.596 0 1.47-.532 2.457a4.4 4.4 0 0 1-1.393 1.577 5.7 5.7 0 0 1-1.944.841 9.6 9.6 0 0 1-2.186.252h-.3a11 11 0 0 1-.88-.04 3 3 0 0 1-.31-.038l-1.083 5.146h-1.548zm2.824 1.102q-.444 0-.86.03-.417.029-.687.086l-1.18 5.63a.7.7 0 0 0 .26.048q.184.01.388.03.202.018.396.019h.29q.832 0 1.606-.174.773-.175 1.364-.6.59-.425.948-1.103.357-.677.358-1.702 0-.697-.232-1.142a1.7 1.7 0 0 0-.63-.686 2.7 2.7 0 0 0-.918-.339 6 6 0 0 0-1.103-.097M481.87 397.091q0-1.528.396-2.795.397-1.267 1.093-2.177a5.1 5.1 0 0 1 1.615-1.412 4 4 0 0 1 1.964-.503q.812 0 1.383.261.57.261.929.716.357.454.512 1.045.155.59.155 1.228 0 1.45-.377 2.709-.378 1.257-1.045 2.186a5.2 5.2 0 0 1-1.557 1.46 3.7 3.7 0 0 1-1.935.532q-.87 0-1.46-.28a2.7 2.7 0 0 1-.968-.745 2.9 2.9 0 0 1-.541-1.045 4.3 4.3 0 0 1-.165-1.18m1.547-.348q0 1.14.425 1.75.426.61 1.355.61.637 0 1.209-.455.57-.454 1.006-1.228a7.5 7.5 0 0 0 .696-1.77 8.2 8.2 0 0 0 .261-2.08q0-.986-.358-1.557-.357-.57-1.363-.57-.638 0-1.22.435-.58.435-1.034 1.17a6.4 6.4 0 0 0-.716 1.693 7.6 7.6 0 0 0-.261 2.002M497.539 391.713a3.2 3.2 0 0 0-.696-.077q-.987 0-1.703.619a4.4 4.4 0 0 0-1.122 1.509l-1.335 6.345h-1.45l2.05-9.673h1.006v1.664h.077q.233-.367.503-.687t.6-.57q.33-.252.716-.397.387-.145.851-.145.425 0 .89.135zM498.235 390.436h1.432l.406-1.915 1.548-.445-.503 2.36h2.534l-.29 1.238h-2.515l-1.219 5.843q-.038.232-.067.425a2.4 2.4 0 0 0-.03.349q0 .464.213.638t.639.174q.465 0 .851-.116.387-.115.774-.348v1.18q-.407.232-1.045.377a5.5 5.5 0 0 1-1.219.145q-1.76 0-1.76-1.605 0-.33.097-.813l1.315-6.249h-1.45zM510.926 396.298q-.154.715-.213 1.45-.058.736-.058 1.374v.552q0 .261.039.474h-1.083l-.271-1.683h-.078a5.2 5.2 0 0 1-1.315 1.276q-.407.271-.87.436-.466.164-.987.164-2.302 0-2.302-2.998 0-1.239.319-2.515a7.5 7.5 0 0 1 .986-2.302 5.5 5.5 0 0 1 1.722-1.683q1.054-.658 2.544-.658.542 0 1.325.126.785.125 1.46.338zm-4.391 2.805q.464 0 .89-.222.424-.223.802-.552.377-.328.668-.706a5 5 0 0 0 .464-.706l1.083-5.223q-.58-.27-1.47-.271-.89 0-1.567.522a4.3 4.3 0 0 0-1.141 1.364 7 7 0 0 0-.697 1.906 10 10 0 0 0-.232 2.128q0 .735.29 1.247t.91.513M514.911 397.807q-.058.33-.058.542 0 .367.126.532.126.164.338.164.387 0 .649-.048.26-.05.628-.184v1.103q-.174.096-.406.164a4 4 0 0 1-.474.106 13 13 0 0 1-.484.068q-.24.03-.435.03-.677 0-1.083-.31t-.406-1.142q0-.387.116-.948l2.398-11.317h1.451zM522.146 386.567h1.548l-1.412 6.713-1.045 3.405h-.89l.387-3.405zm-2.901 12.652q0-.522.31-.822.308-.3.812-.3.503 0 .812.3t.31.822q0 .502-.31.813t-.812.31q-.504 0-.813-.31-.31-.31-.31-.813"/></g><g fill="#0C0A09"><path d="M369.156 645.8q-.925.001-1.918-.394a6.3 6.3 0 0 1-1.85-1.151 5.9 5.9 0 0 1-1.389-1.817q-.53-1.06-.53-2.37 0-2.03.733-3.769a9.7 9.7 0 0 1 2.02-3.047 9.5 9.5 0 0 1 2.946-2.042 8.5 8.5 0 0 1 3.487-.734q.63 0 1.252.102a7 7 0 0 1 1.253.327q.429.135.745.248.315.113.541.113a.5.5 0 0 0 .226-.056l.248-.125q.135-.045.271-.101a.7.7 0 0 1 .248-.057q.204 0 .215.136a.32.32 0 0 1-.057.226 9 9 0 0 0-.564.902q-.315.564-.575 1.174a6.4 6.4 0 0 0-.373 1.128.57.57 0 0 1-.158.305q-.135.147-.248.147a.28.28 0 0 1-.282-.192.8.8 0 0 1-.057-.395q.113-.519.08-1.05-.034-.53-.418-1.026a2.8 2.8 0 0 0-1.005-.802 3.16 3.16 0 0 0-1.41-.304q-.971 0-1.986.451-1.015.452-1.93 1.275-.915.824-1.648 1.953a9.8 9.8 0 0 0-1.568 5.394q0 1.377.395 2.302t1.038 1.49q.643.563 1.4.812.755.248 1.478.248 1.15 0 1.873-.372a3.7 3.7 0 0 0 1.219-.993q.496-.621.948-1.388.112-.18.225-.305a.38.38 0 0 1 .294-.124q.113 0 .135.113t.023.338q0 .159-.203.689t-.497 1.14q-.294.608-.553 1.049t-.372.44a.37.37 0 0 1-.203-.079 4 4 0 0 1-.226-.17.7.7 0 0 0-.215-.146.6.6 0 0 0-.26-.056q-.156 0-.383.067-.225.068-.541.18a8 8 0 0 1-.813.215q-.474.102-1.06.102M377.214 645.891a.28.28 0 0 1-.204-.09.6.6 0 0 1-.135-.226.9.9 0 0 1-.045-.27q0-.339.079-.678.08-.338.214-.835l3.183-10.901q.112-.384.225-.846.113-.463.113-.689t-.282-.338a10 10 0 0 0-.553-.203q-.158-.045-.282-.102t-.124-.147.068-.169.316-.17q.18-.067.507-.18l.7-.237q.372-.124.677-.203.304-.08.418-.079.113 0 .248.023.135.022.135.203 0 .18-.033.316-.035.135-.08.293l-3.069 10.608q-.045.158.011.158.058 0 .124-.09a21.5 21.5 0 0 1 2.054-2.607q1.06-1.14 2.009-1.794t1.625-.655q.745 0 1.14.497.395.496.395 1.15 0 1.152-.418 2.438a13 13 0 0 1-1.094 2.46q-.677 1.174-1.467 2.009-.135.135-.407.35-.27.214-.632.417-.36.203-.733.35a1.9 1.9 0 0 1-.689.147q-.158 0-.372-.136a1.3 1.3 0 0 1-.361-.338q-.147-.204-.147-.361 0-.113.09-.271a1 1 0 0 1 .226-.27.42.42 0 0 1 .271-.114q.203 0 .35.08.147.078.26.191.135.113.27.203.136.09.316.09.384 0 .813-.45.428-.452.824-1.197t.71-1.636.508-1.795a8 8 0 0 0 .192-1.67q0-.519-.214-.801-.215-.282-.643-.282-.498 0-1.118.485a9 9 0 0 0-1.286 1.275q-.666.79-1.298 1.693a32 32 0 0 0-1.151 1.76 26 26 0 0 0-.835 1.467l-.846 1.625q-.282.543-.553.542M388.318 645.869a.5.5 0 0 1-.248-.08.7.7 0 0 1-.226-.203.44.44 0 0 1-.09-.26q0-.27.146-.688.147-.417.373-1.049l2.076-5.417q.113-.293.102-.541t-.237-.249q-.316 0-.62.08a2 2 0 0 0-.464.169q-.134.09-.26.033-.123-.056-.123-.214 0-.18.169-.406.17-.226.463-.429.27-.202.643-.339a2.3 2.3 0 0 1 .779-.135q.631 0 .8.316t.046.846a8.6 8.6 0 0 1-.395 1.208l-1.016 2.55q-.09.159.057.203t.214-.067a23 23 0 0 1 1.817-2.72q.914-1.162 1.704-1.806.79-.643 1.31-.643.586 0 .823.339.237.338.237.79 0 .405-.147.835a2 2 0 0 1-.406.71q-.26.283-.576.283-.18 0-.27-.215a1.5 1.5 0 0 1-.09-.575q0-.34-.091-.53-.09-.192-.339-.192-.225 0-.598.293-.372.293-.936 1.016-.249.338-.655.925-.405.587-.869 1.298-.462.71-.914 1.444-.45.735-.79 1.343a66 66 0 0 0-.869 1.58q-.26.497-.53.497M397.007 645.8a.86.86 0 0 1-.632-.247q-.248-.249-.248-.52 0-.09.011-.18a.6.6 0 0 1 .057-.18 41 41 0 0 0 1.557-3.533q.631-1.659 1.129-2.9.09-.27-.113-.27-.114 0-.44.123a5 5 0 0 0-.689.328q-.36.202-.632.406-.113.09-.225.045-.114-.045-.113-.158 0-.112.169-.327.169-.214.474-.486.305-.27.733-.575.43-.304.937-.61a10 10 0 0 1 1.072-.552.4.4 0 0 1 .406.045q.204.135.328.338.123.204.079.316l-2.754 6.523q-.09.18-.124.35a1.6 1.6 0 0 0-.034.304q0 .159.124.215a.6.6 0 0 0 .237.056q.316 0 .722-.304.407-.306.87-.745.462-.44.89-.87.046-.044.091-.044t.09.034q.045.033.046.079 0 .36-.43.914a7.7 7.7 0 0 1-1.071 1.106q-.645.552-1.32.936-.677.384-1.197.384m4.56-11.893a.7.7 0 0 1-.565-.271.93.93 0 0 1-.226-.61q0-.54.361-.959.361-.417.903-.417.362 0 .565.304t.203.666q0 .496-.361.892-.362.395-.88.395M402.74 645.8q-.497 0-.858-.281a.87.87 0 0 1-.36-.711q0-.52.236-.779.237-.26.395-.26t.327.125.373.304q.248.18.553.35t.8.17q.61 0 .971-.44.362-.44.384-.937 0-.497-.17-1.072a5.5 5.5 0 0 0-.484-1.14 10 10 0 0 1-.486-1.027q-.191-.486-.191-.824 0-.654.35-1.23.349-.576.857-1.004a4.7 4.7 0 0 1 1.004-.666q.497-.237.79-.237t.587.17q.293.168.485.383t.192.372q0 .136-.135.328-.136.192-.316.35t-.316.157q-.112 0-.226-.112l-.248-.249q-.136-.135-.327-.248-.192-.113-.508-.113-.362 0-.632.305-.27.304-.271.801 0 .18.124.564.124.385.294.79.168.406.327.723.248.45.462 1.14.215.687.215 1.207 0 .677-.395 1.241a3.8 3.8 0 0 1-1.027.982 5.3 5.3 0 0 1-1.365.643q-.735.226-1.411.226M409.827 645.8q-.18 0-.406-.146a1.5 1.5 0 0 1-.373-.338q-.147-.192-.147-.35 0-.384.102-.655.103-.27.214-.61l2.145-6.025q.044-.159-.034-.215a.32.32 0 0 0-.192-.056l-.903-.045q-.293-.023-.35-.124a.4.4 0 0 1-.056-.192q0-.045.113-.17.112-.123.282-.248a.6.6 0 0 1 .372-.124h.813q.248 0 .338-.079.09-.08.203-.327l.542-1.106q.09-.18.339-.418.248-.237.507-.417.26-.18.373-.18.18 0 .225.248a.85.85 0 0 1-.045.474l-.586 1.512q-.046.158.033.203.08.045.26.045.451 0 .925.068.474.067.768.113.36.068.44.146a.26.26 0 0 1 .079.192q0 .046-.09.147-.09.102-.34.124-.495.023-.947.056-.45.035-.948.057-.36.022-.508.113a.42.42 0 0 0-.192.225l-2.008 5.552q-.09.272-.09.474-.001.204.124.316.123.114.372.113.315 0 .677-.225.36-.226.7-.52.338-.293.564-.519.248-.247.429-.225.18.022.18.158a.7.7 0 0 1-.113.35q-.113.191-.293.394-.36.384-.756.723a9 9 0 0 1-.812.62 8 8 0 0 1-.79.474 7 7 0 0 1-.666.305 1.4 1.4 0 0 1-.474.113M417.41 645.8q-.541 0-1.015-.36a2.56 2.56 0 0 1-.757-.948 2.8 2.8 0 0 1-.282-1.242q0-1.06.418-2.29a9.6 9.6 0 0 1 1.162-2.325 7 7 0 0 1 1.727-1.794q.981-.7 2.11-.7 1.128 0 1.75.767.62.768.62 1.896 0 1.015-.406 2.223a9 9 0 0 1-1.163 2.291 6.8 6.8 0 0 1-1.805 1.783q-1.05.7-2.359.7m.361-.676q.541 0 1.095-.474t1.06-1.242q.509-.766.904-1.692.394-.925.631-1.851a7 7 0 0 0 .237-1.693q0-.586-.191-.97-.192-.384-.78-.384-.518 0-1.071.429-.553.43-1.06 1.151-.51.722-.915 1.614-.406.89-.643 1.85a7.8 7.8 0 0 0-.237 1.862q0 .745.26 1.072.259.328.71.328M421.134 651.94a.7.7 0 0 1-.237-.045q-.124-.045-.124-.158 0-.18.237-.305t.44-.147q.474-.09.745-.248.27-.157.429-.587l4.356-12.165q.113-.316.135-.474t-.068-.214-.316-.012q-.54.09-.936.192a5 5 0 0 0-.87.328q-.18.09-.326.033t-.147-.191q0-.18.102-.294a.8.8 0 0 1 .236-.18q.361-.18 1.039-.497.677-.315 1.58-.542a.8.8 0 0 0 .26-.124.44.44 0 0 0 .146-.237q.315-1.06.587-1.534.27-.474.767-.474.18 0 .316.112.135.114.09.316l-.383 1.31q-.068.225-.023.327.045.101.135.079.294-.045.53-.068a5 5 0 0 1 .463-.023q1.129 0 1.772.373.644.372.903 1.015.26.644.26 1.434 0 1.083-.497 2.268a9.2 9.2 0 0 1-1.343 2.234 7.6 7.6 0 0 1-1.896 1.704q-1.05.655-2.178.655a.96.96 0 0 1-.451-.136q-.249-.135-.474-.27-.203-.135-.327-.08-.125.057-.282.486l-1.49 4.4q-.158.475.102.712t.823.282q.225.023.452.09.225.067.225.249 0 .135-.203.191a1.7 1.7 0 0 1-.451.057q-.339 0-.7-.011-.36-.012-.666-.012-.304 0-.507.023-.565.068-1.095.113-.531.045-1.14.045m6.613-6.907q.519 0 1.174-.575.654-.576 1.252-1.478.6-.903.993-1.919.395-1.015.395-1.918 0-1.264-.451-1.716-.45-.45-1.264-.473h-.406q-.204 0-.452.045l-2.076 6.093q-.136.406-.147.757-.01.35.08.598a.9.9 0 0 0 .327.44q.214.146.575.146M434.27 645.891a.28.28 0 0 1-.203-.09.6.6 0 0 1-.136-.226.9.9 0 0 1-.045-.27q0-.339.08-.678.078-.338.213-.835l3.183-10.901q.112-.384.225-.846.114-.463.113-.689 0-.225-.282-.338a10 10 0 0 0-.553-.203q-.158-.045-.282-.102t-.124-.147.068-.169.316-.17q.18-.067.508-.18.326-.112.7-.237.371-.124.676-.203t.418-.079q.113 0 .248.023.135.022.135.203 0 .18-.033.316-.035.135-.08.293l-3.069 10.608q-.045.158.011.158.057 0 .125-.09a21.5 21.5 0 0 1 2.053-2.607q1.061-1.14 2.01-1.794.947-.655 1.624-.655.745 0 1.14.497.395.496.395 1.15 0 1.152-.418 2.438a13 13 0 0 1-1.094 2.46q-.677 1.174-1.467 2.009-.135.135-.407.35-.27.214-.632.417-.36.203-.733.35a1.9 1.9 0 0 1-.688.147q-.159 0-.373-.136a1.3 1.3 0 0 1-.36-.338q-.148-.204-.148-.361 0-.113.09-.271a1 1 0 0 1 .226-.27.42.42 0 0 1 .271-.114q.203 0 .35.08.147.078.26.191.135.113.27.203t.316.09q.384 0 .813-.45.428-.452.824-1.197t.71-1.636.508-1.795a8 8 0 0 0 .192-1.67q0-.519-.214-.801-.215-.282-.643-.282-.497 0-1.118.485a9 9 0 0 0-1.286 1.275q-.666.79-1.298 1.693a32 32 0 0 0-1.15 1.76 26 26 0 0 0-.836 1.467l-.846 1.625q-.283.543-.553.542M446.412 645.823q-.473 0-.959-.36a2.9 2.9 0 0 1-.801-.915q-.316-.553-.316-1.072 0-1.128.462-2.404a9.6 9.6 0 0 1 1.276-2.392 7.4 7.4 0 0 1 1.884-1.828q1.072-.711 2.268-.711.79 0 1.23.327t.44.914q0 .7-.44 1.22-.44.518-1.184.89a9 9 0 0 1-1.66.621q-.914.249-1.861.43a1 1 0 0 0-.215.056q-.079.034-.124.169-.157.496-.316 1.083-.158.587-.158 1.106 0 .79.305 1.219.304.429.891.429.813 0 1.377-.407.564-.405.926-.812.225-.249.406-.248.225 0 .226.225v.08a.14.14 0 0 1-.046.1q-.451.746-1.015 1.253a4.1 4.1 0 0 1-1.208.768q-.643.26-1.388.26m.497-5.8q.248 0 .846-.147a6 6 0 0 0 1.253-.474 4 4 0 0 0 1.117-.812q.463-.486.463-1.163a.83.83 0 0 0-.158-.507.53.53 0 0 0-.452-.215q-.474 0-1.027.395-.552.396-1.05.948a8 8 0 0 0-.823 1.072q-.327.519-.327.768 0 .135.158.135M453.07 645.869a.5.5 0 0 1-.248-.08.7.7 0 0 1-.226-.203.44.44 0 0 1-.09-.26q0-.27.147-.688l.372-1.049 2.077-5.417q.113-.293.101-.541-.01-.249-.237-.249-.315 0-.62.08a2 2 0 0 0-.463.169q-.135.09-.26.033-.124-.056-.124-.214 0-.18.17-.406.168-.226.462-.429.27-.202.643-.339a2.3 2.3 0 0 1 .779-.135q.632 0 .801.316t.045.846a8.6 8.6 0 0 1-.395 1.208l-1.015 2.55q-.09.159.056.203.147.045.215-.067a23 23 0 0 1 1.816-2.72q.915-1.162 1.704-1.806.79-.643 1.31-.643.586 0 .823.339.237.338.237.79 0 .405-.146.835a2 2 0 0 1-.407.71q-.26.283-.575.283-.18 0-.271-.215a1.5 1.5 0 0 1-.09-.575q0-.34-.09-.53-.09-.192-.34-.192-.225 0-.597.293-.373.293-.937 1.016-.248.338-.654.925t-.87 1.298-.913 1.444-.79 1.343a66 66 0 0 0-.87 1.58q-.259.497-.53.497M468.892 645.823q-.565 0-1.151-.101a6.2 6.2 0 0 1-1.174-.327 23 23 0 0 1-.485-.192.9.9 0 0 0-.26-.08.7.7 0 0 0-.237.046q-.125.045-.237.09-.135.09-.248.158a.4.4 0 0 1-.203.068q-.09 0-.26-.147t-.169-.282.203-.61q.204-.473.463-1.207a7.8 7.8 0 0 0 .372-1.614q.068-.45.361-.451.18 0 .226.214.045.215.045.666 0 .858.282 1.569.283.71.88 1.117.6.406 1.524.406 1.445 0 2.449-.823 1.005-.824 1.004-2.336 0-.588-.17-1.084a3.7 3.7 0 0 0-.575-1.027q-.406-.53-1.128-1.207a12 12 0 0 1-1.66-1.828q-.687-.948-.687-2.235 0-1.195.62-2.121t1.693-1.456 2.404-.53q.36 0 .767.079a8.7 8.7 0 0 1 1.546.451q.304.124.463.124a.8.8 0 0 0 .428-.113q.09-.045.181-.079a.6.6 0 0 1 .203-.034q.18 0 .226.136.045.135.045.226 0 .022-.147.282-.146.26-.338.88-.192.621-.373 1.794-.045.34-.169.53-.125.192-.192.192-.158 0-.214-.169a1.3 1.3 0 0 1-.057-.417q0-1.58-.722-2.404-.721-.824-1.918-.824-.79 0-1.456.429-.666.428-1.05 1.095a2.74 2.74 0 0 0-.383 1.388q0 .585.203 1.14.202.552.666 1.128.462.576 1.23 1.298 1.151 1.038 1.726 1.895.576.858.576 1.806a4.43 4.43 0 0 1-.587 2.257q-.587 1.016-1.726 1.625-1.14.61-2.81.61M476.43 645.8a.9.9 0 0 1-.722-.349 1.18 1.18 0 0 1-.294-.779q0-.406.203-.744.204-.34.53-.53.328-.193.734-.193.452 0 .734.339t.282.79q0 .406-.192.733a1.5 1.5 0 0 1-.53.53 1.4 1.4 0 0 1-.745.204M482.546 649.999q-1.015 0-1.512-.418-.495-.418-.496-.778-.001-.475.124-.745a.43.43 0 0 1 .417-.271q.18 0 .452.248.27.249.632.497.27.202.609.406a1.34 1.34 0 0 0 1.535-.079q.383-.282.778-1.05.396-.766.824-2.211l3.814-12.549q.249-.791.057-1.117-.192-.327-.937-.485-.339-.069-.451-.181a.37.37 0 0 1-.113-.27q0-.136.214-.193a2 2 0 0 1 .486-.056q.563 0 .914.022a22 22 0 0 0 2.121.034q.237-.011.53-.034.294-.022.858-.022.52 0 .52.248 0 .158-.215.271a2.1 2.1 0 0 1-.598.18q-.542.09-.858.271-.315.18-.485.497-.17.315-.35.835l-2.821 9.231q-.54 1.783-.96 2.855-.417 1.072-.767 1.693a6 6 0 0 1-.665.982q-.317.36-.632.7a6 6 0 0 1-1.366 1.071 3.3 3.3 0 0 1-1.659.418M493.74 645.8q-.54 0-1.015-.36a2.56 2.56 0 0 1-.756-.948 2.8 2.8 0 0 1-.282-1.242q0-1.06.418-2.29a9.6 9.6 0 0 1 1.162-2.325 7 7 0 0 1 1.726-1.794q.982-.7 2.11-.7 1.13 0 1.75.767.62.768.62 1.896 0 1.015-.406 2.223a9 9 0 0 1-1.162 2.291 6.8 6.8 0 0 1-1.806 1.783q-1.05.7-2.358.7m.362-.676q.541 0 1.095-.474.552-.474 1.06-1.242.508-.766.903-1.692t.632-1.851a7 7 0 0 0 .237-1.693q0-.586-.192-.97t-.778-.384q-.52 0-1.073.429-.553.43-1.06 1.151-.509.722-.914 1.614-.407.89-.644 1.85a7.8 7.8 0 0 0-.237 1.862q0 .745.26 1.072t.71.328M501.302 645.846a.4.4 0 0 1-.26-.102.98.98 0 0 1-.338-.575.5.5 0 0 1 .033-.316l2.618-6.41q.406-.993.046-.993-.226 0-.474.056a1.45 1.45 0 0 0-.542.283q-.294.225-.655.7-.09.09-.191.078t-.147-.169q0-.135.079-.35.08-.215.192-.429.113-.215.203-.35.339-.518.914-.812.576-.293 1.343-.316.248 0 .451.124.204.125.305.35a.6.6 0 0 1-.011.497l-1.49 3.836q-.068.159.034.18.101.024.17-.09.924-1.58 1.884-2.674.959-1.095 1.84-1.659.88-.564 1.556-.564.474 0 .824.327t.452.88q.101.554-.215 1.276l-2.076 4.92q-.339.813.113.812.27 0 .666-.203a7 7 0 0 0 .8-.485q.408-.282.712-.52.304-.236.395-.326.023-.023.033-.023h.034q.068 0 .124.056a.2.2 0 0 1 .057.147q0 .18-.09.316-.588.7-1.253 1.264a6 6 0 0 1-1.377.892 3.4 3.4 0 0 1-1.433.327.7.7 0 0 1-.406-.147.9.9 0 0 1-.305-.372.55.55 0 0 1 .011-.474q.655-1.513 1.32-3.013.667-1.5 1.253-3.013.362-.926.249-1.298-.114-.372-.43-.395-.247-.023-.586.17a4.4 4.4 0 0 0-.767.586 10 10 0 0 0-.926 1.004q-.27.316-.722.982t-1.016 1.535a80.06 80.06 0 0 0-2.302 3.78q-.202.362-.36.53-.159.17-.34.17M514.166 645.823q-.473 0-.959-.36a2.9 2.9 0 0 1-.801-.915q-.316-.553-.316-1.072 0-1.128.463-2.404a9.6 9.6 0 0 1 1.275-2.392 7.4 7.4 0 0 1 1.884-1.828q1.072-.711 2.269-.711.789 0 1.23.327t.44.914q0 .7-.44 1.22-.441.518-1.185.89a9 9 0 0 1-1.66.621q-.913.249-1.861.43a1 1 0 0 0-.215.056q-.079.034-.124.169-.157.496-.316 1.083-.158.587-.158 1.106 0 .79.305 1.219.304.429.892.429.812 0 1.376-.407.564-.405.926-.812.226-.249.406-.248.226 0 .226.225v.08a.14.14 0 0 1-.045.1q-.452.746-1.016 1.253a4.1 4.1 0 0 1-1.208.768q-.642.26-1.388.26m.497-5.8q.248 0 .846-.147a6 6 0 0 0 1.253-.474 4 4 0 0 0 1.117-.812q.463-.486.463-1.163a.83.83 0 0 0-.158-.507.53.53 0 0 0-.452-.215q-.474 0-1.027.395-.552.396-1.049.948a8 8 0 0 0-.824 1.072q-.327.519-.327.768 0 .135.158.135M520.057 645.8q-.496 0-.858-.281a.87.87 0 0 1-.36-.711q0-.52.236-.779.237-.26.395-.26t.327.125.373.304q.248.18.553.35t.801.17q.61 0 .97-.44.362-.44.384-.937 0-.497-.169-1.072a5.5 5.5 0 0 0-.485-1.14 10 10 0 0 1-.486-1.027q-.19-.486-.191-.824 0-.654.35-1.23t.857-1.004a4.7 4.7 0 0 1 1.004-.666q.497-.237.79-.237t.587.17q.294.168.485.383.192.215.192.372 0 .136-.135.328-.136.192-.316.35t-.316.157q-.112 0-.226-.112l-.248-.249q-.136-.135-.327-.248-.192-.113-.508-.113-.36 0-.632.305-.27.304-.27.801 0 .18.123.564.124.385.294.79.169.406.327.723.248.45.463 1.14.214.687.214 1.207 0 .677-.395 1.241a3.8 3.8 0 0 1-1.027.982 5.3 5.3 0 0 1-1.365.643q-.735.226-1.411.226"/></g></g><g transform="translate(53 179)"><rect width="131.402" height="104.152" x="2.424" y="2.424" stroke="#A8A29E" stroke-width="4.848" rx="33.791"/><rect width="122.238" height="95.201" x="6.899" y="6.899" fill="#060025" stroke="#0A0A0A" stroke-width="6.986" rx="28.801"/><path fill="#161437" d="M105.288 100.484H30.695c-12.206 0-22.1-9.894-22.1-22.1V46.943h118.793v31.443c0 12.205-9.894 22.1-22.1 22.1"/><g fill="#FCBF24" fill-rule="nonzero"><path d="m89.996 41.29-2.481-6.615-6.615-2.481 6.615-2.481 2.481-6.615 2.481 6.615 6.615 2.481-6.615 2.481zM70.81 32.194l-1.218-3.33-3.33-1.218 3.33-1.218 1.218-3.33 1.218 3.33 3.33 1.218-3.33 1.218zM77.49 49.39l-1.264-3.284-3.284-1.263 3.284-1.264 1.264-3.284 1.263 3.284 3.284 1.264-3.284 1.263z"/></g><path fill="#D6D3D1" fill-rule="nonzero" d="m24.163 48.965 8.138-12.925-8.138-12.942h5.48l7.99 12.942-7.99 12.925z"/><path fill="#D6D3D1" d="M42.394 48.965V44.85h18.19v4.115z"/></g></g></svg>