<?xml version="1.0" standalone="yes"?><svg xmlns="http://www.w3.org/2000/svg" version="1.1" width="360" height="360" viewBox="0 0 360 360" shape-rendering="crispEdges"><rect x="0" y="0" width="360" height="360" fill="#ffffff"/><path fill="#000000" d="M32 32h8v8H32V32M40 32h8v8H40V32M48 32h8v8H48V32M56 32h8v8H56V32M64 32h8v8H64V32M72 32h8v8H72V32M80 32h8v8H80V32M96 32h8v8H96V32M112 32h8v8H112V32M120 32h8v8H120V32M160 32h8v8H160V32M168 32h8v8H168V32M176 32h8v8H176V32M184 32h8v8H184V32M216 32h8v8H216V32M232 32h8v8H232V32M248 32h8v8H248V32M272 32h8v8H272V32M280 32h8v8H280V32M288 32h8v8H288V32M296 32h8v8H296V32M304 32h8v8H304V32M312 32h8v8H312V32M320 32h8v8H320V32M32 40h8v8H32V40M80 40h8v8H80V40M112 40h8v8H112V40M128 40h8v8H128V40M160 40h8v8H160V40M176 40h8v8H176V40M192 40h8v8H192V40M200 40h8v8H200V40M208 40h8v8H208V40M232 40h8v8H232V40M240 40h8v8H240V40M256 40h8v8H256V40M272 40h8v8H272V40M320 40h8v8H320V40M32 48h8v8H32V48M48 48h8v8H48V48M56 48h8v8H56V48M64 48h8v8H64V48M80 48h8v8H80V48M120 48h8v8H120V48M144 48h8v8H144V48M152 48h8v8H152V48M160 48h8v8H160V48M168 48h8v8H168V48M176 48h8v8H176V48M184 48h8v8H184V48M192 48h8v8H192V48M200 48h8v8H200V48M240 48h8v8H240V48M256 48h8v8H256V48M272 48h8v8H272V48M288 48h8v8H288V48M296 48h8v8H296V48M304 48h8v8H304V48M320 48h8v8H320V48M32 56h8v8H32V56M48 56h8v8H48V56M56 56h8v8H56V56M64 56h8v8H64V56M80 56h8v8H80V56M96 56h8v8H96V56M120 56h8v8H120V56M128 56h8v8H128V56M160 56h8v8H160V56M184 56h8v8H184V56M192 56h8v8H192V56M216 56h8v8H216V56M224 56h8v8H224V56M232 56h8v8H232V56M240 56h8v8H240V56M248 56h8v8H248V56M272 56h8v8H272V56M288 56h8v8H288V56M296 56h8v8H296V56M304 56h8v8H304V56M320 56h8v8H320V56M32 64h8v8H32V64M48 64h8v8H48V64M56 64h8v8H56V64M64 64h8v8H64V64M80 64h8v8H80V64M96 64h8v8H96V64M104 64h8v8H104V64M120 64h8v8H120V64M136 64h8v8H136V64M144 64h8v8H144V64M200 64h8v8H200V64M216 64h8v8H216V64M232 64h8v8H232V64M240 64h8v8H240V64M248 64h8v8H248V64M256 64h8v8H256V64M272 64h8v8H272V64M288 64h8v8H288V64M296 64h8v8H296V64M304 64h8v8H304V64M320 64h8v8H320V64M32 72h8v8H32V72M80 72h8v8H80V72M96 72h8v8H96V72M104 72h8v8H104V72M112 72h8v8H112V72M136 72h8v8H136V72M144 72h8v8H144V72M152 72h8v8H152V72M160 72h8v8H160V72M176 72h8v8H176V72M184 72h8v8H184V72M192 72h8v8H192V72M200 72h8v8H200V72M224 72h8v8H224V72M232 72h8v8H232V72M240 72h8v8H240V72M256 72h8v8H256V72M272 72h8v8H272V72M320 72h8v8H320V72M32 80h8v8H32V80M40 80h8v8H40V80M48 80h8v8H48V80M56 80h8v8H56V80M64 80h8v8H64V80M72 80h8v8H72V80M80 80h8v8H80V80M96 80h8v8H96V80M112 80h8v8H112V80M128 80h8v8H128V80M144 80h8v8H144V80M160 80h8v8H160V80M176 80h8v8H176V80M192 80h8v8H192V80M208 80h8v8H208V80M224 80h8v8H224V80M240 80h8v8H240V80M256 80h8v8H256V80M272 80h8v8H272V80M280 80h8v8H280V80M288 80h8v8H288V80M296 80h8v8H296V80M304 80h8v8H304V80M312 80h8v8H312V80M320 80h8v8H320V80M96 88h8v8H96V88M104 88h8v8H104V88M128 88h8v8H128V88M136 88h8v8H136V88M144 88h8v8H144V88M152 88h8v8H152V88M168 88h8v8H168V88M176 88h8v8H176V88M192 88h8v8H192V88M200 88h8v8H200V88M208 88h8v8H208V88M216 88h8v8H216V88M224 88h8v8H224V88M248 88h8v8H248V88M32 96h8v8H32V96M64 96h8v8H64V96M80 96h8v8H80V96M88 96h8v8H88V96M96 96h8v8H96V96M128 96h8v8H128V96M152 96h8v8H152V96M176 96h8v8H176V96M184 96h8v8H184V96M200 96h8v8H200V96M256 96h8v8H256V96M264 96h8v8H264V96M272 96h8v8H272V96M280 96h8v8H280V96M288 96h8v8H288V96M296 96h8v8H296V96M320 96h8v8H320V96M32 104h8v8H32V104M56 104h8v8H56V104M72 104h8v8H72V104M96 104h8v8H96V104M104 104h8v8H104V104M112 104h8v8H112V104M120 104h8v8H120V104M144 104h8v8H144V104M160 104h8v8H160V104M184 104h8v8H184V104M192 104h8v8H192V104M208 104h8v8H208V104M216 104h8v8H216V104M224 104h8v8H224V104M232 104h8v8H232V104M240 104h8v8H240V104M248 104h8v8H248V104M288 104h8v8H288V104M312 104h8v8H312V104M48 112h8v8H48V112M56 112h8v8H56V112M64 112h8v8H64V112M80 112h8v8H80V112M96 112h8v8H96V112M104 112h8v8H104V112M120 112h8v8H120V112M128 112h8v8H128V112M160 112h8v8H160V112M168 112h8v8H168V112M176 112h8v8H176V112M192 112h8v8H192V112M200 112h8v8H200V112M216 112h8v8H216V112M224 112h8v8H224V112M248 112h8v8H248V112M264 112h8v8H264V112M288 112h8v8H288V112M296 112h8v8H296V112M304 112h8v8H304V112M40 120h8v8H40V120M72 120h8v8H72V120M88 120h8v8H88V120M120 120h8v8H120V120M136 120h8v8H136V120M168 120h8v8H168V120M200 120h8v8H200V120M216 120h8v8H216V120M224 120h8v8H224V120M240 120h8v8H240V120M248 120h8v8H248V120M264 120h8v8H264V120M272 120h8v8H272V120M288 120h8v8H288V120M296 120h8v8H296V120M304 120h8v8H304V120M32 128h8v8H32V128M40 128h8v8H40V128M64 128h8v8H64V128M72 128h8v8H72V128M80 128h8v8H80V128M96 128h8v8H96V128M104 128h8v8H104V128M112 128h8v8H112V128M120 128h8v8H120V128M144 128h8v8H144V128M152 128h8v8H152V128M160 128h8v8H160V128M168 128h8v8H168V128M176 128h8v8H176V128M184 128h8v8H184V128M200 128h8v8H200V128M208 128h8v8H208V128M224 128h8v8H224V128M256 128h8v8H256V128M264 128h8v8H264V128M272 128h8v8H272V128M280 128h8v8H280V128M296 128h8v8H296V128M56 136h8v8H56V136M88 136h8v8H88V136M96 136h8v8H96V136M104 136h8v8H104V136M128 136h8v8H128V136M144 136h8v8H144V136M152 136h8v8H152V136M168 136h8v8H168V136M200 136h8v8H200V136M208 136h8v8H208V136M216 136h8v8H216V136M240 136h8v8H240V136M248 136h8v8H248V136M256 136h8v8H256V136M288 136h8v8H288V136M296 136h8v8H296V136M312 136h8v8H312V136M320 136h8v8H320V136M48 144h8v8H48V144M56 144h8v8H56V144M80 144h8v8H80V144M104 144h8v8H104V144M112 144h8v8H112V144M128 144h8v8H128V144M136 144h8v8H136V144M144 144h8v8H144V144M152 144h8v8H152V144M176 144h8v8H176V144M200 144h8v8H200V144M208 144h8v8H208V144M216 144h8v8H216V144M224 144h8v8H224V144M240 144h8v8H240V144M248 144h8v8H248V144M256 144h8v8H256V144M272 144h8v8H272V144M288 144h8v8H288V144M296 144h8v8H296V144M304 144h8v8H304V144M312 144h8v8H312V144M32 152h8v8H32V152M40 152h8v8H40V152M56 152h8v8H56V152M88 152h8v8H88V152M96 152h8v8H96V152M104 152h8v8H104V152M128 152h8v8H128V152M136 152h8v8H136V152M144 152h8v8H144V152M152 152h8v8H152V152M184 152h8v8H184V152M192 152h8v8H192V152M200 152h8v8H200V152M208 152h8v8H208V152M240 152h8v8H240V152M256 152h8v8H256V152M264 152h8v8H264V152M288 152h8v8H288V152M304 152h8v8H304V152M320 152h8v8H320V152M40 160h8v8H40V160M48 160h8v8H48V160M56 160h8v8H56V160M80 160h8v8H80V160M88 160h8v8H88V160M112 160h8v8H112V160M136 160h8v8H136V160M144 160h8v8H144V160M152 160h8v8H152V160M160 160h8v8H160V160M184 160h8v8H184V160M192 160h8v8H192V160M200 160h8v8H200V160M240 160h8v8H240V160M248 160h8v8H248V160M272 160h8v8H272V160M280 160h8v8H280V160M304 160h8v8H304V160M32 168h8v8H32V168M64 168h8v8H64V168M88 168h8v8H88V168M96 168h8v8H96V168M120 168h8v8H120V168M136 168h8v8H136V168M176 168h8v8H176V168M184 168h8v8H184V168M200 168h8v8H200V168M208 168h8v8H208V168M216 168h8v8H216V168M224 168h8v8H224V168M248 168h8v8H248V168M256 168h8v8H256V168M264 168h8v8H264V168M288 168h8v8H288V168M32 176h8v8H32V176M56 176h8v8H56V176M64 176h8v8H64V176M72 176h8v8H72V176M80 176h8v8H80V176M104 176h8v8H104V176M120 176h8v8H120V176M144 176h8v8H144V176M152 176h8v8H152V176M176 176h8v8H176V176M184 176h8v8H184V176M208 176h8v8H208V176M216 176h8v8H216V176M224 176h8v8H224V176M248 176h8v8H248V176M264 176h8v8H264V176M304 176h8v8H304V176M56 184h8v8H56V184M64 184h8v8H64V184M88 184h8v8H88V184M104 184h8v8H104V184M112 184h8v8H112V184M120 184h8v8H120V184M136 184h8v8H136V184M152 184h8v8H152V184M160 184h8v8H160V184M168 184h8v8H168V184M176 184h8v8H176V184M184 184h8v8H184V184M192 184h8v8H192V184M200 184h8v8H200V184M208 184h8v8H208V184M248 184h8v8H248V184M256 184h8v8H256V184M272 184h8v8H272V184M280 184h8v8H280V184M304 184h8v8H304V184M312 184h8v8H312V184M320 184h8v8H320V184M32 192h8v8H32V192M40 192h8v8H40V192M48 192h8v8H48V192M56 192h8v8H56V192M64 192h8v8H64V192M80 192h8v8H80V192M88 192h8v8H88V192M96 192h8v8H96V192M120 192h8v8H120V192M128 192h8v8H128V192M168 192h8v8H168V192M176 192h8v8H176V192M200 192h8v8H200V192M248 192h8v8H248V192M272 192h8v8H272V192M320 192h8v8H320V192M32 200h8v8H32V200M48 200h8v8H48V200M64 200h8v8H64V200M72 200h8v8H72V200M88 200h8v8H88V200M112 200h8v8H112V200M120 200h8v8H120V200M128 200h8v8H128V200M136 200h8v8H136V200M152 200h8v8H152V200M160 200h8v8H160V200M208 200h8v8H208V200M216 200h8v8H216V200M224 200h8v8H224V200M232 200h8v8H232V200M240 200h8v8H240V200M248 200h8v8H248V200M256 200h8v8H256V200M264 200h8v8H264V200M280 200h8v8H280V200M288 200h8v8H288V200M40 208h8v8H40V208M48 208h8v8H48V208M64 208h8v8H64V208M72 208h8v8H72V208M80 208h8v8H80V208M88 208h8v8H88V208M112 208h8v8H112V208M128 208h8v8H128V208M152 208h8v8H152V208M168 208h8v8H168V208M192 208h8v8H192V208M200 208h8v8H200V208M208 208h8v8H208V208M216 208h8v8H216V208M240 208h8v8H240V208M248 208h8v8H248V208M256 208h8v8H256V208M264 208h8v8H264V208M272 208h8v8H272V208M288 208h8v8H288V208M48 216h8v8H48V216M72 216h8v8H72V216M96 216h8v8H96V216M120 216h8v8H120V216M128 216h8v8H128V216M160 216h8v8H160V216M168 216h8v8H168V216M176 216h8v8H176V216M192 216h8v8H192V216M200 216h8v8H200V216M208 216h8v8H208V216M216 216h8v8H216V216M240 216h8v8H240V216M256 216h8v8H256V216M264 216h8v8H264V216M280 216h8v8H280V216M288 216h8v8H288V216M304 216h8v8H304V216M312 216h8v8H312V216M320 216h8v8H320V216M32 224h8v8H32V224M40 224h8v8H40V224M48 224h8v8H48V224M72 224h8v8H72V224M80 224h8v8H80V224M88 224h8v8H88V224M96 224h8v8H96V224M104 224h8v8H104V224M112 224h8v8H112V224M128 224h8v8H128V224M136 224h8v8H136V224M176 224h8v8H176V224M184 224h8v8H184V224M200 224h8v8H200V224M208 224h8v8H208V224M216 224h8v8H216V224M240 224h8v8H240V224M256 224h8v8H256V224M264 224h8v8H264V224M272 224h8v8H272V224M304 224h8v8H304V224M320 224h8v8H320V224M32 232h8v8H32V232M40 232h8v8H40V232M48 232h8v8H48V232M56 232h8v8H56V232M64 232h8v8H64V232M72 232h8v8H72V232M96 232h8v8H96V232M104 232h8v8H104V232M112 232h8v8H112V232M144 232h8v8H144V232M160 232h8v8H160V232M184 232h8v8H184V232M192 232h8v8H192V232M200 232h8v8H200V232M216 232h8v8H216V232M232 232h8v8H232V232M248 232h8v8H248V232M288 232h8v8H288V232M296 232h8v8H296V232M304 232h8v8H304V232M48 240h8v8H48V240M64 240h8v8H64V240M72 240h8v8H72V240M80 240h8v8H80V240M88 240h8v8H88V240M128 240h8v8H128V240M144 240h8v8H144V240M160 240h8v8H160V240M192 240h8v8H192V240M200 240h8v8H200V240M208 240h8v8H208V240M216 240h8v8H216V240M240 240h8v8H240V240M248 240h8v8H248V240M256 240h8v8H256V240M264 240h8v8H264V240M288 240h8v8H288V240M304 240h8v8H304V240M64 248h8v8H64V248M104 248h8v8H104V248M120 248h8v8H120V248M128 248h8v8H128V248M168 248h8v8H168V248M176 248h8v8H176V248M200 248h8v8H200V248M216 248h8v8H216V248M248 248h8v8H248V248M256 248h8v8H256V248M280 248h8v8H280V248M296 248h8v8H296V248M304 248h8v8H304V248M312 248h8v8H312V248M32 256h8v8H32V256M40 256h8v8H40V256M48 256h8v8H48V256M56 256h8v8H56V256M64 256h8v8H64V256M80 256h8v8H80V256M88 256h8v8H88V256M96 256h8v8H96V256M104 256h8v8H104V256M136 256h8v8H136V256M152 256h8v8H152V256M160 256h8v8H160V256M168 256h8v8H168V256M184 256h8v8H184V256M200 256h8v8H200V256M208 256h8v8H208V256M216 256h8v8H216V256M224 256h8v8H224V256M248 256h8v8H248V256M256 256h8v8H256V256M264 256h8v8H264V256M272 256h8v8H272V256M280 256h8v8H280V256M288 256h8v8H288V256M312 256h8v8H312V256M96 264h8v8H96V264M104 264h8v8H104V264M136 264h8v8H136V264M144 264h8v8H144V264M152 264h8v8H152V264M168 264h8v8H168V264M200 264h8v8H200V264M208 264h8v8H208V264M216 264h8v8H216V264M232 264h8v8H232V264M240 264h8v8H240V264M248 264h8v8H248V264M256 264h8v8H256V264M288 264h8v8H288V264M296 264h8v8H296V264M304 264h8v8H304V264M312 264h8v8H312V264M32 272h8v8H32V272M40 272h8v8H40V272M48 272h8v8H48V272M56 272h8v8H56V272M64 272h8v8H64V272M72 272h8v8H72V272M80 272h8v8H80V272M96 272h8v8H96V272M136 272h8v8H136V272M144 272h8v8H144V272M152 272h8v8H152V272M176 272h8v8H176V272M200 272h8v8H200V272M208 272h8v8H208V272M216 272h8v8H216V272M224 272h8v8H224V272M256 272h8v8H256V272M272 272h8v8H272V272M288 272h8v8H288V272M32 280h8v8H32V280M80 280h8v8H80V280M104 280h8v8H104V280M120 280h8v8H120V280M144 280h8v8H144V280M152 280h8v8H152V280M200 280h8v8H200V280M208 280h8v8H208V280M248 280h8v8H248V280M256 280h8v8H256V280M288 280h8v8H288V280M304 280h8v8H304V280M312 280h8v8H312V280M32 288h8v8H32V288M48 288h8v8H48V288M56 288h8v8H56V288M64 288h8v8H64V288M80 288h8v8H80V288M96 288h8v8H96V288M104 288h8v8H104V288M160 288h8v8H160V288M192 288h8v8H192V288M256 288h8v8H256V288M264 288h8v8H264V288M272 288h8v8H272V288M280 288h8v8H280V288M288 288h8v8H288V288M304 288h8v8H304V288M312 288h8v8H312V288M320 288h8v8H320V288M32 296h8v8H32V296M48 296h8v8H48V296M56 296h8v8H56V296M64 296h8v8H64V296M80 296h8v8H80V296M104 296h8v8H104V296M112 296h8v8H112V296M128 296h8v8H128V296M136 296h8v8H136V296M144 296h8v8H144V296M176 296h8v8H176V296M184 296h8v8H184V296M216 296h8v8H216V296M224 296h8v8H224V296M240 296h8v8H240V296M264 296h8v8H264V296M272 296h8v8H272V296M280 296h8v8H280V296M296 296h8v8H296V296M32 304h8v8H32V304M48 304h8v8H48V304M56 304h8v8H56V304M64 304h8v8H64V304M80 304h8v8H80V304M104 304h8v8H104V304M112 304h8v8H112V304M128 304h8v8H128V304M136 304h8v8H136V304M144 304h8v8H144V304M152 304h8v8H152V304M168 304h8v8H168V304M176 304h8v8H176V304M184 304h8v8H184V304M200 304h8v8H200V304M216 304h8v8H216V304M224 304h8v8H224V304M232 304h8v8H232V304M240 304h8v8H240V304M248 304h8v8H248V304M256 304h8v8H256V304M272 304h8v8H272V304M280 304h8v8H280V304M296 304h8v8H296V304M304 304h8v8H304V304M312 304h8v8H312V304M32 312h8v8H32V312M80 312h8v8H80V312M104 312h8v8H104V312M112 312h8v8H112V312M144 312h8v8H144V312M152 312h8v8H152V312M160 312h8v8H160V312M168 312h8v8H168V312M184 312h8v8H184V312M192 312h8v8H192V312M200 312h8v8H200V312M208 312h8v8H208V312M264 312h8v8H264V312M272 312h8v8H272V312M280 312h8v8H280V312M296 312h8v8H296V312M304 312h8v8H304V312M312 312h8v8H312V312M32 320h8v8H32V320M40 320h8v8H40V320M48 320h8v8H48V320M56 320h8v8H56V320M64 320h8v8H64V320M72 320h8v8H72V320M80 320h8v8H80V320M96 320h8v8H96V320M104 320h8v8H104V320M128 320h8v8H128V320M160 320h8v8H160V320M168 320h8v8H168V320M176 320h8v8H176V320M192 320h8v8H192V320M200 320h8v8H200V320M208 320h8v8H208V320M216 320h8v8H216V320M240 320h8v8H240V320M248 320h8v8H248V320M264 320h8v8H264V320M280 320h8v8H280V320M296 320h8v8H296V320M312 320h8v8H312V320M320 320h8v8H320V320"/></svg>
