<svg xmlns="http://www.w3.org/2000/svg" width="848" height="476"><defs><linearGradient id="a" x1="0%" x2="100%" y1="0%" y2="0%"><stop offset="0%" stop-color="#FFF"/><stop offset="100%"/></linearGradient></defs><g fill="none" fill-rule="evenodd"><path fill="url(#a)" fill-rule="nonzero" d="M6.382 39.235C-5.312 35.278-.648 1.966 18.005 7.65c1.731-11.08 23.423-9.28 23.282 0 13.601-11.87 30.984 11.8 19.325 23.67 13.99 5.756-.177 36.765-11.659 31.585-.919 8.634-21.445 11.655-23.246 0-11.623 12.447-35.859-6.69-19.325-23.67" transform="translate(470.277 200.383)"/><path stroke="#7C96B1" stroke-linecap="round" stroke-linejoin="round" d="M476.66 239.618c-11.694-3.957-7.03-37.269 11.623-31.585 1.731-11.08 23.423-9.281 23.282 0 13.601-11.87 30.984 11.8 19.325 23.67 13.99 5.756-.177 36.765-11.659 31.585-.919 8.634-21.445 11.655-23.246 0-11.623 12.447-35.859-6.691-19.325-23.67"/><path fill="url(#a)" fill-rule="nonzero" d="M6.382 39.235C-5.312 35.278-.648 1.966 18.005 7.65c1.731-11.08 23.423-9.28 23.282 0 13.601-11.87 30.984 11.8 19.325 23.67 13.99 5.756-.177 36.765-11.659 31.585-.919 8.634-21.445 11.655-23.246 0-11.623 12.447-35.859-6.69-19.325-23.67" transform="translate(470.277 321.264)"/><path stroke="#7C96B1" stroke-linecap="round" stroke-linejoin="round" d="M476.66 360.499c-11.694-3.957-7.03-37.269 11.623-31.585 1.731-11.08 23.423-9.281 23.282 0 13.601-11.87 30.984 11.8 19.325 23.67 13.99 5.756-.177 36.765-11.659 31.585-.919 8.634-21.445 11.655-23.246 0-11.623 12.447-35.859-6.691-19.325-23.67"/><path fill="#FEF7E1" fill-rule="nonzero" stroke="#FCBF24" stroke-width=".5" d="M174.515 52.981h241.203a8 8 0 0 1 8 8v344.848a8 8 0 0 1-8 8H174.515a8 8 0 0 1-8-8V60.981a8 8 0 0 1 8-8Z"/><text fill="#0A0A0A" fill-rule="nonzero" font-family="Palatino-Roman, Palatino" font-size="10" transform="translate(175.515 55.981)">
                <tspan x="0" y="10">Kilo Nalu Shore Station Linux System</tspan>
            </text><text fill="#0A0A0A" fill-rule="nonzero" font-family="Palatino-Roman, Palatino" font-size="10" transform="translate(12.015 422.481)">
                <tspan x="0" y="10">Ocean and Atmospheric data measurement instruments stream data in realtime varying rates (1sec, 5sec, 1min, 15min, 1day etc.) into the ring buffers. They are processed by sink</tspan>
                <tspan x="0" y="23">software into a data archive, and further processed into 15min summary plots avaiable online.  The data are replicated in realtime to the campus system, with independent replication</tspan>
                <tspan x="0" y="36">of the data archive via rsync.</tspan>
            </text><path fill="#D6D3D1" stroke="#A8A29E" stroke-linecap="round" stroke-linejoin="round" stroke-width=".5" d="M195.557 80.044h68.354a2 2 0 0 1 2 2v313.552a2 2 0 0 1-2 2h-68.354a2 2 0 0 1-2-2V82.044a2 2 0 0 1 2-2"/><g fill="#0A0A0A" fill-rule="nonzero" font-family="Palatino-Roman, Palatino" font-size="10"><text transform="translate(200.244 219.32)">
                <tspan x="4.136" y="10">RBNB Data</tspan>
            </text><text transform="translate(200.244 219.32)">
                <tspan x="1.987" y="23">Turbine ring</tspan>
            </text><text transform="translate(200.244 219.32)">
                <tspan x="0" y="36">buffer engine</tspan>
            </text></g><path fill="#EFF6FF" fill-rule="nonzero" stroke="#60A5FA" stroke-width=".5" d="M18.556 52.981h98.308a8 8 0 0 1 8 8v344.848a8 8 0 0 1-8 8H18.556a8 8 0 0 1-8-8V60.981a8 8 0 0 1 8-8Z"/><text fill="#0A0A0A" fill-rule="nonzero" font-family="Palatino-Roman, Palatino" font-size="10" transform="translate(19.556 55.981)">
                <tspan x="0" y="10">Ocean and Air</tspan>
                <tspan x="0" y="23">Deployed Instruments</tspan>
            </text><path fill="#FFCF4A" fill-rule="nonzero" d="M365.793 294.848h17.04v-4.963l5.68 9.926-5.68 9.927v-4.963h-17.04z"/><path stroke="#C08012" stroke-linecap="round" stroke-linejoin="round" stroke-width=".25" d="M365.793 294.848h17.04v-4.963l5.68 9.926-5.68 9.927v-4.963h-17.04z"/><path fill="#E7E5E4" fill-rule="nonzero" d="M173.653 82.044a2 2 0 0 1 2-2h15.903a2 2 0 0 1 2 2v95.233a2 2 0 0 1-2 2h-15.903a2 2 0 0 1-2-2z"/><path fill="#60A5FA" stroke="#2563EB" stroke-linecap="round" stroke-linejoin="round" stroke-width=".5" d="M173.653 177.277V82.044a2 2 0 0 1 2-2h15.903a2 2 0 0 1 2 2v95.233a2 2 0 0 1-2 2h-15.903a2 2 0 0 1-2-2"/><text fill="#0A0A0A" fill-rule="nonzero" font-family="Palatino-Roman, Palatino" font-size="10" transform="rotate(-90 174.805 -2.299)">
                <tspan x="0" y="10">ADCP Source {1..n}</tspan>
            </text><path fill="#FCBF24" stroke="#D97705" stroke-linecap="round" stroke-linejoin="round" stroke-width=".5" d="M265.91 375.744v-95.233a2 2 0 0 1 2-2h16.226a2 2 0 0 1 2 2v95.233a2 2 0 0 1-2 2h-16.225a2 2 0 0 1-2-2"/><text fill="#0A0A0A" fill-rule="nonzero" font-family="Palatino-Roman, Palatino" font-size="10" transform="rotate(-90 317.532 48.008)">
                <tspan x="0" y="10">FileArchiverSink</tspan>
            </text><path fill="#60A5FA" fill-rule="nonzero" d="M134.66 125.036h17.04v-4.626l5.68 9.251-5.68 9.251v-4.625h-17.04z"/><path stroke="#224A76" stroke-linecap="round" stroke-linejoin="round" stroke-width=".25" d="M134.66 125.036h17.04v-4.626l5.68 9.251-5.68 9.251v-4.625h-17.04z"/><path fill="#E7E5E4" fill-rule="nonzero" d="M173.653 276.511v-95.233a2 2 0 0 1 2-2h15.903a2 2 0 0 1 2 2v95.233a2 2 0 0 1-2 2h-15.903a2 2 0 0 1-2-2"/><path fill="#60A5FA" stroke="#2563EB" stroke-linecap="round" stroke-linejoin="round" stroke-width=".5" d="M173.653 276.511v-95.233a2 2 0 0 1 2-2h15.903a2 2 0 0 1 2 2v95.233a2 2 0 0 1-2 2h-15.903a2 2 0 0 1-2-2"/><text fill="#0A0A0A" fill-rule="nonzero" font-family="Palatino-Roman, Palatino" font-size="10" transform="rotate(-90 224.873 47.767)">
                <tspan x="0" y="10">TChainSource {1..n}</tspan>
            </text><path fill="#DBEAFE" fill-rule="nonzero" d="M476.66 239.618c-11.694-3.957-7.03-37.269 11.623-31.585 1.731-11.08 23.423-9.281 23.282 0 13.601-11.87 30.984 11.8 19.325 23.67 13.99 5.756-.177 36.765-11.659 31.585-.919 8.634-21.445 11.655-23.246 0-11.623 12.447-35.859-6.691-19.325-23.67"/><path stroke="#7C96B1" stroke-linecap="round" stroke-linejoin="round" d="M476.66 239.618c-11.694-3.957-7.03-37.269 11.623-31.585 1.731-11.08 23.423-9.281 23.282 0 13.601-11.87 30.984 11.8 19.325 23.67 13.99 5.756-.177 36.765-11.659 31.585-.919 8.634-21.445 11.655-23.246 0-11.623 12.447-35.859-6.691-19.325-23.67"/><g fill="#0A0A0A" fill-rule="nonzero" font-family="Palatino-Roman, Palatino" font-size="10"><text transform="translate(484.852 222.66)">
                <tspan x="0" y="10">Wireless</tspan>
            </text><text transform="translate(484.852 222.66)">
                <tspan x="7.766" y="23">VPN</tspan>
            </text></g><path fill="#E7E5E4" fill-rule="nonzero" d="M173.653 375.744v-95.233a2 2 0 0 1 2-2h15.903a2 2 0 0 1 2 2v95.233a2 2 0 0 1-2 2h-15.903a2 2 0 0 1-2-2"/><path fill="#60A5FA" stroke="#2563EB" stroke-linecap="round" stroke-linejoin="round" stroke-width=".5" d="M173.653 375.744v-95.233a2 2 0 0 1 2-2h15.903a2 2 0 0 1 2 2v95.233a2 2 0 0 1-2 2h-15.903a2 2 0 0 1-2-2"/><text fill="#0A0A0A" fill-rule="nonzero" font-family="Palatino-Roman, Palatino" font-size="10" transform="rotate(-90 271.536 94.431)">
                <tspan x="0" y="10">CTDSource {1..n}</tspan>
            </text><path fill="#E7E5E4" fill-rule="nonzero" d="M175.653 377.744h15.903a2 2 0 0 1 2 2v15.852a2 2 0 0 1-2 2h-15.903a2 2 0 0 1-2-2v-15.852a2 2 0 0 1 2-2"/><path fill="#60A5FA" stroke="#2563EB" stroke-linecap="round" stroke-linejoin="round" stroke-width=".5" d="M175.653 377.744h15.903a2 2 0 0 1 2 2v15.852a2 2 0 0 1-2 2h-15.903a2 2 0 0 1-2-2v-15.852a2 2 0 0 1 2-2"/><text fill="#0A0A0A" fill-rule="nonzero" font-family="Palatino-Roman, Palatino" font-size="10" transform="translate(179.855 381.17)">
                <tspan x="0" y="10">...</tspan>
            </text><path fill="#60A5FA" fill-rule="nonzero" d="M18.091 120.41h99.486v19.853H18.091z"/><path stroke="#515151" stroke-linecap="round" stroke-linejoin="round" stroke-width=".25" d="M18.091 120.41h99.486v19.853H18.091z"/><text fill="#0A0A0A" fill-rule="nonzero" font-family="Palatino-Roman, Palatino" font-size="10" transform="translate(41.108 123.836)">
                <tspan x="0" y="10">ADCP {1..n}</tspan>
            </text><path fill="#60A5FA" fill-rule="nonzero" d="M18.091 218.968h99.486v19.853H18.091z"/><path stroke="#2563EB" stroke-linecap="round" stroke-linejoin="round" stroke-width=".25" d="M18.091 218.968h99.486v19.853H18.091z"/><text fill="#0A0A0A" fill-rule="nonzero" font-family="Palatino-Roman, Palatino" font-size="10" transform="translate(38.96 222.394)">
                <tspan x="0" y="10">TChain {1..n}</tspan>
            </text><path fill="#60A5FA" fill-rule="nonzero" d="M18.091 318.201h99.486v19.853H18.091z"/><path stroke="#515151" stroke-linecap="round" stroke-linejoin="round" stroke-width=".25" d="M18.091 318.201h99.486v19.853H18.091z"/><text fill="#0A0A0A" fill-rule="nonzero" font-family="Palatino-Roman, Palatino" font-size="10" transform="translate(44.865 321.627)">
                <tspan x="0" y="10">CTD {1..n}</tspan>
            </text><path fill="#60A5FA" fill-rule="nonzero" d="M134.66 224.269h17.04v-4.626l5.68 9.251-5.68 9.251v-4.625h-17.04z"/><path stroke="#224A76" stroke-linecap="round" stroke-linejoin="round" stroke-width=".25" d="M134.66 224.269h17.04v-4.626l5.68 9.251-5.68 9.251v-4.625h-17.04z"/><path fill="#55A6FF" fill-rule="nonzero" d="M134.66 323.502h17.04v-4.626l5.68 9.251-5.68 9.251v-4.625h-17.04z"/><path stroke="#2563EB" stroke-linecap="round" stroke-linejoin="round" stroke-width=".25" d="M134.66 323.502h17.04v-4.626l5.68 9.251-5.68 9.251v-4.625h-17.04z"/><path fill="#60A5FA" fill-rule="nonzero" d="M18.091 377.744h99.486v19.852H18.091z"/><path stroke="#515151" stroke-linecap="round" stroke-linejoin="round" stroke-width=".25" d="M18.091 377.744h99.486v19.852H18.091z"/><text fill="#0A0A0A" fill-rule="nonzero" font-family="Palatino-Roman, Palatino" font-size="10" transform="translate(25.388 381.17)">
                <tspan x="0" y="10">other streams {1..n}</tspan>
            </text><path fill="#60A5FA" fill-rule="nonzero" d="M134.66 382.37h17.04v-4.626l5.68 9.251-5.68 9.251v-4.625h-17.04z"/><path stroke="#224A76" stroke-linecap="round" stroke-linejoin="round" stroke-width=".25" d="M134.66 382.37h17.04v-4.626l5.68 9.251-5.68 9.251v-4.625h-17.04z"/><path fill="#FCBF24" fill-rule="nonzero" stroke="#F59E0C" d="M267.911 377.744h15.903a2 2 0 0 1 2 2v15.852a2 2 0 0 1-2 2h-15.903a2 2 0 0 1-2-2v-15.852a2 2 0 0 1 2-2"/><text fill="#0A0A0A" fill-rule="nonzero" font-family="Palatino-Roman, Palatino" font-size="10" transform="translate(272.113 381.17)">
                <tspan x="0" y="10">...</tspan>
            </text><path fill="#FCBF24" stroke="#D97705" stroke-linecap="round" stroke-linejoin="round" stroke-width=".5" d="M265.91 276.51v-95.233a2 2 0 0 1 2-2h16.226a2 2 0 0 1 2 2v95.233a2 2 0 0 1-2 2q0 0 0 0h-16.225a2 2 0 0 1-2-2"/><text fill="#0A0A0A" fill-rule="nonzero" font-family="Palatino-Roman, Palatino" font-size="10" transform="rotate(-90 266.642 -2.883)">
                <tspan x="0" y="10">ReplicationSink</tspan>
            </text><path fill="#D97705" fill-rule="nonzero" d="M325.232 278.511h32.5a2 2 0 0 1 2 2v95.233a2 2 0 0 1-2 2h-32.5a2 2 0 0 1-2-2v-95.233a2 2 0 0 1 2-2"/><path stroke="#92400D" stroke-linecap="round" stroke-linejoin="round" stroke-width=".5" d="M325.232 278.511h32.5a2 2 0 0 1 2 2v95.233a2 2 0 0 1-2 2h-32.5a2 2 0 0 1-2-2v-95.233a2 2 0 0 1 2-2"/><g fill="#0A0A0A" fill-rule="nonzero" font-family="Palatino-Roman, Palatino" font-size="10"><text transform="translate(328.698 308.628)">
                <tspan x="2.425" y="10">local</tspan>
            </text><text transform="translate(328.698 308.628)">
                <tspan x="0" y="23">RAID</tspan>
            </text><text transform="translate(328.698 308.628)">
                <tspan x="1.053" y="36">array</tspan>
            </text></g><path fill="#FFCF4A" fill-rule="nonzero" d="M294.612 323.84h17.04v-4.964l5.68 9.926-5.68 9.927v-4.963h-17.04z"/><path stroke="#C08012" stroke-linecap="round" stroke-linejoin="round" stroke-width=".25" d="M294.612 323.84h17.04v-4.964l5.68 9.926-5.68 9.927v-4.963h-17.04z"/><path fill="#D97705" fill-rule="nonzero" d="M397.148 319.11v-38.6a2 2 0 0 1 2-2h16.226a2 2 0 0 1 2 2v38.6a2 2 0 0 1-2 2h-16.226a2 2 0 0 1-2-2"/><path stroke="#92400D" stroke-linecap="round" stroke-linejoin="round" stroke-width=".5" d="M397.148 319.11v-38.6a2 2 0 0 1 2-2h16.226a2 2 0 0 1 2 2v38.6a2 2 0 0 1-2 2h-16.226a2 2 0 0 1-2-2"/><text fill="#0A0A0A" fill-rule="nonzero" font-family="Palatino-Roman, Palatino" font-size="10" transform="rotate(-90 356.236 -44.526)">
                <tspan x="0" y="10">HDD</tspan>
            </text><path fill="#FCBF24" stroke="#D97705" stroke-linecap="round" stroke-linejoin="round" stroke-width=".5" d="M265.91 177.277V82.044a2 2 0 0 1 2-2h16.226a2 2 0 0 1 2 2v95.233a2 2 0 0 1-2 2q0 0 0 0h-16.225a2 2 0 0 1-2-2"/><text fill="#0A0A0A" fill-rule="nonzero" font-family="Palatino-Roman, Palatino" font-size="10" transform="rotate(-90 219.63 -49.894)">
                <tspan x="0" y="10">TextOutputPlugin</tspan>
            </text><path fill="#FFCF4A" fill-rule="nonzero" d="M434.113 351.48h17.04v-4.963l5.68 9.926-5.68 9.927v-4.964h-17.04z"/><path stroke="#C08012" stroke-linecap="round" stroke-linejoin="round" stroke-width=".25" d="M434.113 351.48h17.04v-4.963l5.68 9.926-5.68 9.927v-4.964h-17.04z"/><path fill="#D97705" fill-rule="nonzero" d="M397.148 375.744v-38.6a2 2 0 0 1 2-2h16.226a2 2 0 0 1 2 2v38.6a2 2 0 0 1-2 2h-16.226a2 2 0 0 1-2-2"/><path stroke="#92400D" stroke-linecap="round" stroke-linejoin="round" stroke-width=".5" d="M397.148 375.744v-38.6a2 2 0 0 1 2-2h16.226a2 2 0 0 1 2 2v38.6a2 2 0 0 1-2 2h-16.226a2 2 0 0 1-2-2"/><text fill="#0A0A0A" fill-rule="nonzero" font-family="Palatino-Roman, Palatino" font-size="10" transform="rotate(-90 384.604 -16.157)">
                <tspan x="0" y="10">rsync</tspan>
            </text><path fill="#FFCF4A" fill-rule="nonzero" d="M367.404 351.48h17.04v-4.963l5.68 9.926-5.68 9.927v-4.964h-17.04z"/><path stroke="#C08012" stroke-linecap="round" stroke-linejoin="round" stroke-width=".25" d="M367.404 351.48h17.04v-4.963l5.68 9.926-5.68 9.927v-4.964h-17.04z"/><path fill="#FEF7E1" fill-rule="nonzero" stroke="#FCBF24" stroke-width=".5" d="M591.089 52.981h241.203a8 8 0 0 1 8 8v344.848a8 8 0 0 1-8 8H591.089a8 8 0 0 1-8-8V60.981a8 8 0 0 1 8-8Z"/><text fill="#0A0A0A" fill-rule="nonzero" font-family="Palatino-Roman, Palatino" font-size="10" transform="translate(592.089 55.981)">
                <tspan x="0" y="10">U. Hawaii HIG Campus Linux System</tspan>
            </text><path fill="#D6D3D1" stroke="#A8A29E" stroke-linecap="round" stroke-linejoin="round" stroke-width=".5" d="M740.671 80.044h68.354a2 2 0 0 1 2 2v313.552a2 2 0 0 1-2 2H740.67a2 2 0 0 1-2-2V82.044a2 2 0 0 1 2-2"/><g fill="#0A0A0A" fill-rule="nonzero" font-family="Palatino-Roman, Palatino" font-size="10"><text transform="translate(745.358 219.32)">
                <tspan x="4.136" y="10">RBNB Data</tspan>
            </text><text transform="translate(745.358 219.32)">
                <tspan x="1.987" y="23">Turbine ring</tspan>
            </text><text transform="translate(745.358 219.32)">
                <tspan x="0" y="36">buffer engine</tspan>
            </text></g><path fill="#FCBF24" stroke="#D97705" stroke-linecap="round" stroke-linejoin="round" stroke-width=".5" d="M811.025 375.744v-95.233a2 2 0 0 1 2-2h16.225a2 2 0 0 1 2 2v95.233a2 2 0 0 1-2 2h-16.225a2 2 0 0 1-2-2"/><text fill="#0A0A0A" fill-rule="nonzero" font-family="Palatino-Roman, Palatino" font-size="10" transform="rotate(-90 586.467 -228.171)">
                <tspan x="0" y="10">WebPageSink</tspan>
            </text><path fill="#FCBF24" fill-rule="nonzero" stroke="#D97705" stroke-width=".5" d="M718.767 276.511v-95.233a2 2 0 0 1 2-2h15.903a2 2 0 0 1 2 2v95.233a2 2 0 0 1-2 2h-15.903a2 2 0 0 1-2-2"/><text fill="#0A0A0A" fill-rule="nonzero" font-family="Palatino-Roman, Palatino" font-size="10" transform="rotate(-90 495.54 -226.68)">
                <tspan x="0" y="10">ReplicationSource</tspan>
            </text><path fill="#FCBF24" stroke="#D97705" stroke-linecap="round" stroke-linejoin="round" stroke-width=".5" d="M813.025 377.744h15.903a2 2 0 0 1 2 2v15.852a2 2 0 0 1-2 2h-15.903a2 2 0 0 1-2-2v-15.852a2 2 0 0 1 2-2"/><text fill="#0A0A0A" fill-rule="nonzero" font-family="Palatino-Roman, Palatino" font-size="10" transform="translate(817.227 381.17)">
                <tspan x="0" y="10">...</tspan>
            </text><path fill="#FCBF24" stroke="#D97705" stroke-linecap="round" stroke-linejoin="round" stroke-width=".5" d="M811.025 276.511v-95.233a2 2 0 0 1 2-2h16.225a2 2 0 0 1 2 2v95.233a2 2 0 0 1-2 2h-16.225a2 2 0 0 1-2-2"/><text fill="#0A0A0A" fill-rule="nonzero" font-family="Palatino-Roman, Palatino" font-size="10" transform="rotate(-90 534.442 -280.196)">
                <tspan x="0" y="10">MatlabSink</tspan>
            </text><path fill="#D97705" stroke="#92400D" stroke-linecap="round" stroke-linejoin="round" stroke-width=".5" d="M647.789 280.516h32.5a2 2 0 0 1 2 2v95.233a2 2 0 0 1-2 2h-32.5a2 2 0 0 1-2-2v-95.233a2 2 0 0 1 2-2"/><g fill="#0A0A0A" fill-rule="nonzero" font-family="Palatino-Roman, Palatino" font-size="10"><text transform="translate(651.255 310.633)">
                <tspan x="2.425" y="10">local</tspan>
            </text><text transform="translate(651.255 310.633)">
                <tspan x="0" y="23">RAID</tspan>
            </text><text transform="translate(651.255 310.633)">
                <tspan x="1.053" y="36">array</tspan>
            </text></g><path fill="#D97705" fill-rule="nonzero" stroke="#92400D" stroke-width=".5" d="M590.226 375.842v-38.6a2 2 0 0 1 2-2h16.226a2 2 0 0 1 2 2v38.6a2 2 0 0 1-2 2h-16.226a2 2 0 0 1-2-2"/><text fill="#0A0A0A" fill-rule="nonzero" font-family="Palatino-Roman, Palatino" font-size="10" transform="rotate(-90 481.192 -112.647)">
                <tspan x="0" y="10">rsync</tspan>
            </text><path fill="#FCBF24" stroke="#D97705" stroke-linecap="round" stroke-linejoin="round" stroke-width=".5" d="M811.025 177.278V82.045a2 2 0 0 1 2-2h16.225a2 2 0 0 1 2 2v95.233a2 2 0 0 1-2 2h-16.225a2 2 0 0 1-2-2"/><text fill="#0A0A0A" fill-rule="nonzero" font-family="Palatino-Roman, Palatino" font-size="10" transform="rotate(-90 482.445 -332.193)">
                <tspan x="0" y="10">RDVSink</tspan>
            </text><path fill="#DBEAFE" fill-rule="nonzero" d="M476.66 360.499c-11.694-3.957-7.03-37.269 11.623-31.585 1.731-11.08 23.423-9.281 23.282 0 13.601-11.87 30.984 11.8 19.325 23.67 13.99 5.756-.177 36.765-11.659 31.585-.919 8.634-21.445 11.655-23.246 0-11.623 12.447-35.859-6.691-19.325-23.67"/><path stroke="#7C96B1" stroke-linecap="round" stroke-linejoin="round" d="M476.66 360.499c-11.694-3.957-7.03-37.269 11.623-31.585 1.731-11.08 23.423-9.281 23.282 0 13.601-11.87 30.984 11.8 19.325 23.67 13.99 5.756-.177 36.765-11.659 31.585-.919 8.634-21.445 11.655-23.246 0-11.623 12.447-35.859-6.691-19.325-23.67"/><g fill="#0A0A0A" fill-rule="nonzero" font-family="Palatino-Roman, Palatino" font-size="10"><text transform="translate(484.852 343.542)">
                <tspan x="0" y="10">Wireless</tspan>
            </text><text transform="translate(484.852 343.542)">
                <tspan x="7.766" y="23">VPN</tspan>
            </text></g><path fill="#FFCF4A" fill-rule="nonzero" d="M549.976 351.48h17.04v-4.963l5.68 9.926-5.68 9.927v-4.964h-17.04z"/><path stroke="#C08012" stroke-linecap="round" stroke-linejoin="round" stroke-width=".25" d="M549.976 351.48h17.04v-4.963l5.68 9.926-5.68 9.927v-4.964h-17.04z"/><path fill="#FFCF4A" fill-rule="nonzero" d="M616.76 351.48h17.04v-4.963l5.68 9.926-5.68 9.927v-4.964h-17.04z"/><path stroke="#C08012" stroke-linecap="round" stroke-linejoin="round" stroke-width=".25" d="M616.76 351.48h17.04v-4.963l5.68 9.926-5.68 9.927v-4.964h-17.04z"/><path fill="#FFCF4A" fill-rule="nonzero" d="M687.664 228.442h17.04v-4.963l5.68 9.926-5.68 9.927v-4.963h-17.04z"/><path stroke="#C08012" stroke-linecap="round" stroke-linejoin="round" stroke-width=".25" d="M687.664 228.442h17.04v-4.963l5.68 9.926-5.68 9.927v-4.963h-17.04z"/><path fill="#FDCF52" fill-rule="nonzero" d="M547.964 228.393h141.972v10.024H547.964z"/><path stroke="#BC801F" stroke-linecap="round" stroke-linejoin="round" stroke-width=".25" d="M547.964 228.393h141.972v10.024H547.964z"/><path fill="#FACF59" fill-rule="nonzero" d="M687.74 228.518h4.271v9.648h-4.271z"/><path fill="#FFCF4A" fill-rule="nonzero" d="M435.171 230.697h17.04v-4.963l5.68 9.926-5.68 9.927v-4.963h-17.04z"/><path stroke="#C08012" stroke-linecap="round" stroke-linejoin="round" stroke-width=".25" d="M435.171 230.697h17.04v-4.963l5.68 9.926-5.68 9.927v-4.963h-17.04z"/><path fill="#FDCF52" fill-rule="nonzero" d="M295.472 230.649h141.972v10.024H295.472z"/><path stroke="#BC801F" stroke-linecap="round" stroke-linejoin="round" stroke-width=".25" d="M295.472 230.649h141.972v10.024H295.472z"/><path fill="#FACF59" fill-rule="nonzero" d="M435.248 230.774h4.271v9.648h-4.271z"/><text fill="#515151" fill-rule="nonzero" font-family="Palatino-Roman, Palatino" font-size="14" transform="translate(321.295 15.568)">
                <tspan x="0" y="15">Kilo Nalu Architecture Overview</tspan>
            </text></g></svg>